<svg width="100" height="42" viewBox="0 0 100 42" fill="none" xmlns="http://www.w3.org/2000/svg">
<ellipse cx="50" cy="20.936" rx="50" ry="20.936" fill="#718089"/>
<circle cx="52.4597" cy="16.7123" r="5.32166" fill="#718089"/>
<path d="M70.1571 6.69727H71.6364V15.6988L76.9135 11.1036H79.0747L72.8114 16.5486L79.4419 22.5182H77.3646L71.6364 17.3879V22.5182H70.1571V6.69727Z" fill="white"/>
<path d="M66.3802 6.4043C66.7159 6.4043 67.0027 6.5232 67.2405 6.761C67.4783 6.9988 67.5972 7.28557 67.5972 7.62129C67.5972 7.95002 67.4783 8.23328 67.2405 8.47109C67.0027 8.70889 66.7159 8.82779 66.3802 8.82779C66.0515 8.82779 65.7682 8.70889 65.5304 8.47109C65.2926 8.23328 65.1737 7.95002 65.1737 7.62129C65.1737 7.28557 65.2926 6.9988 65.5304 6.761C65.7682 6.5232 66.0515 6.4043 66.3802 6.4043ZM65.6458 11.1044H67.1251V22.519H65.6458V11.1044Z" fill="white"/>
<path d="M61.3445 6.69727H62.8133V22.5182H61.3445V6.69727Z" fill="white"/>
<path d="M46.772 11.1043H48.4297V13.2026C49.0102 12.4052 49.6781 11.8072 50.4335 11.4086C51.1889 11.0099 52.0317 10.8105 52.9619 10.8105C54.5846 10.8105 55.9729 11.3946 57.127 12.5626C58.281 13.7306 58.858 15.1365 58.858 16.7801C58.858 18.4587 58.2845 19.8855 57.1375 21.0606C55.9974 22.2286 54.6195 22.8126 53.0039 22.8126C52.0946 22.8126 51.2588 22.6238 50.4964 22.2461C49.7341 21.8684 48.8918 21.1918 48.2763 20.4434V23.6454V26.7154H46.7985L46.772 11.1043ZM52.8465 12.2269C51.5736 12.2269 50.4999 12.671 49.6257 13.5593C48.7584 14.4475 48.3247 15.5526 48.3247 16.8745C48.3247 17.7418 48.5171 18.5217 48.9018 19.2141C49.2934 19.9065 49.8495 20.4556 50.5699 20.8612C51.2973 21.2669 52.0632 21.4697 52.8675 21.4697C53.6578 21.4697 54.3992 21.2669 55.0916 20.8612C55.7911 20.4486 56.3471 19.875 56.7598 19.1407C57.1724 18.4063 57.3788 17.6369 57.3788 16.8326C57.3788 16.0212 57.1724 15.2519 56.7598 14.5245C56.3541 13.7971 55.8051 13.234 55.1126 12.8354C54.4202 12.4297 53.6648 12.2269 52.8465 12.2269Z" fill="white"/>
<path d="M42.5334 18.7315L43.7714 19.382C43.3657 20.1793 42.8971 20.8228 42.3655 21.3124C41.834 21.8019 41.236 22.1761 40.5715 22.4349C39.9071 22.6867 39.1552 22.8126 38.3159 22.8126C36.4554 22.8126 35.0006 22.2041 33.9515 20.9871C32.9024 19.7631 32.3778 18.3818 32.3778 16.8431C32.3778 15.3953 32.8219 14.1048 33.7102 12.9718C34.8363 11.531 36.3435 10.8105 38.232 10.8105C40.1764 10.8105 41.7291 11.5484 42.8901 13.0242C43.7154 14.0664 44.1351 15.3673 44.1491 16.927H33.8886C33.9165 18.2559 34.3397 19.347 35.158 20.2003C35.9763 21.0466 36.987 21.4697 38.19 21.4697C38.7705 21.4697 39.3335 21.3683 39.8791 21.1655C40.4316 20.9626 40.9003 20.6934 41.2849 20.3576C41.6696 20.0219 42.0858 19.4799 42.5334 18.7315ZM42.5334 15.6575C42.3376 14.8742 42.0508 14.2482 41.6731 13.7796C41.3024 13.311 40.8093 12.9333 40.1938 12.6465C39.5783 12.3598 38.9314 12.2164 38.2529 12.2164C37.1339 12.2164 36.1722 12.5766 35.3678 13.297C34.7803 13.8216 34.3362 14.6084 34.0354 15.6575H42.5334Z" fill="white"/>
<path d="M20.1975 7.08594H23.2715C24.985 7.08594 26.1461 7.15588 26.7546 7.29576C27.6708 7.50559 28.4157 7.95672 28.9892 8.64914C29.5628 9.33458 29.8495 10.1809 29.8495 11.188C29.8495 12.0273 29.6502 12.7652 29.2515 13.4017C28.8598 14.0382 28.2968 14.5208 27.5624 14.8495C26.828 15.1712 25.8139 15.3356 24.5199 15.3426L30.0698 22.5187H28.1604L22.621 15.3426H21.7397V22.5187H20.1975V7.08594ZM21.7397 8.59669V13.8423L24.394 13.8633C25.4222 13.8633 26.1811 13.7654 26.6707 13.5696C27.1672 13.3737 27.5519 13.0625 27.8247 12.6358C28.1045 12.2022 28.2443 11.7196 28.2443 11.188C28.2443 10.6705 28.1045 10.2019 27.8247 9.78221C27.5449 9.35556 27.1777 9.05131 26.7231 8.86946C26.2685 8.68761 25.5131 8.59669 24.457 8.59669H21.7397Z" fill="white"/>
<path d="M69.9238 33.1564L70.6995 33.5639C70.4453 34.0635 70.1517 34.4667 69.8186 34.7735C69.4856 35.0802 69.1109 35.3147 68.6945 35.4768C68.2782 35.6346 67.8071 35.7135 67.2812 35.7135C66.1155 35.7135 65.204 35.3322 64.5466 34.5697C63.8893 33.8028 63.5606 32.9373 63.5606 31.9731C63.5606 31.066 63.8389 30.2575 64.3954 29.5475C65.101 28.6447 66.0454 28.1934 67.2286 28.1934C68.4469 28.1934 69.4198 28.6557 70.1473 29.5804C70.6644 30.2333 70.9274 31.0485 70.9361 32.0257H64.5072C64.5247 32.8584 64.7899 33.542 65.3026 34.0767C65.8153 34.6069 66.4486 34.8721 67.2024 34.8721C67.5661 34.8721 67.9189 34.8085 68.2607 34.6814C68.6069 34.5544 68.9005 34.3856 69.1415 34.1753C69.3826 33.9649 69.6433 33.6253 69.9238 33.1564ZM69.9238 31.2303C69.8011 30.7395 69.6214 30.3473 69.3848 30.0537C69.1525 29.7601 68.8435 29.5234 68.4579 29.3437C68.0722 29.1641 67.6669 29.0742 67.2418 29.0742C66.5406 29.0742 65.938 29.2999 65.4341 29.7513C65.0659 30.08 64.7877 30.573 64.5992 31.2303H69.9238Z" fill="white"/>
<path d="M59.5048 28.3774H60.4448V29.4226C60.7252 29.0107 61.0211 28.7039 61.3322 28.5023C61.6434 28.2963 61.9676 28.1934 62.3051 28.1934C62.5593 28.1934 62.831 28.2744 63.1202 28.4366L62.6403 29.2123C62.4475 29.129 62.2854 29.0874 62.1539 29.0874C61.8471 29.0874 61.5513 29.2144 61.2665 29.4686C60.9816 29.7184 60.7647 30.1085 60.6157 30.6387C60.5017 31.0463 60.4448 31.8702 60.4448 33.1104V35.5294H59.5048V28.3774Z" fill="white"/>
<path d="M54.4167 28.1934C55.5166 28.1934 56.4282 28.5922 57.1512 29.3897C57.8086 30.1172 58.1373 30.9784 58.1373 31.9731C58.1373 32.9723 57.7889 33.8466 57.0921 34.596C56.3997 35.341 55.5079 35.7135 54.4167 35.7135C53.3211 35.7135 52.4249 35.341 51.7281 34.596C51.0357 33.8466 50.6895 32.9723 50.6895 31.9731C50.6895 30.9827 51.0181 30.1238 51.6755 29.3963C52.3986 28.5943 53.3123 28.1934 54.4167 28.1934ZM54.4167 29.0939C53.6541 29.0939 52.999 29.3766 52.4512 29.9419C51.9034 30.5072 51.6295 31.1909 51.6295 31.9929C51.6295 32.51 51.7544 32.992 52.0042 33.439C52.254 33.886 52.5914 34.2323 53.0165 34.4777C53.4416 34.7187 53.9083 34.8392 54.4167 34.8392C54.925 34.8392 55.3917 34.7187 55.8168 34.4777C56.2419 34.2323 56.5793 33.886 56.8291 33.439C57.0789 32.992 57.2038 32.51 57.2038 31.9929C57.2038 31.1909 56.9277 30.5072 56.3756 29.9419C55.8278 29.3766 55.1748 29.0939 54.4167 29.0939Z" fill="white"/>
<path d="M46.7981 26.6022L48.2759 25.6172V28.3775H49.7537V29.1664H48.2759V35.5296H46.7981V29.1664H45.3203V28.3775H46.7981V26.6022Z" fill="white"/>
<path d="M38.9164 33.7289L39.7381 33.2359C40.3165 34.3008 40.9849 34.8333 41.743 34.8333C42.0673 34.8333 42.3719 34.7588 42.6567 34.6098C42.9416 34.4564 43.1585 34.2526 43.3075 33.9985C43.4565 33.7443 43.531 33.4748 43.531 33.1899C43.531 32.8656 43.4215 32.5479 43.2023 32.2367C42.8999 31.8073 42.3478 31.2902 41.5458 30.6854C40.7394 30.0762 40.2377 29.6358 40.0405 29.3641C39.6986 28.9083 39.5277 28.4153 39.5277 27.8851C39.5277 27.4644 39.6285 27.0809 39.8301 26.7347C40.0317 26.3885 40.3144 26.1168 40.6781 25.9196C41.0462 25.718 41.445 25.6172 41.8745 25.6172C42.3302 25.6172 42.7553 25.7311 43.1497 25.959C43.5485 26.1825 43.9692 26.5966 44.4119 27.2014L43.623 27.7996C43.2593 27.3175 42.9482 26.9998 42.6896 26.8464C42.4354 26.6931 42.1571 26.6164 41.8548 26.6164C41.4647 26.6164 41.1448 26.7347 40.895 26.9713C40.6496 27.208 40.5269 27.4994 40.5269 27.8456C40.5269 28.056 40.5707 28.2598 40.6584 28.457C40.746 28.6542 40.906 28.8689 41.1382 29.1012C41.2653 29.2239 41.6817 29.546 42.3872 30.0675C43.2242 30.6854 43.7983 31.2354 44.1095 31.7174C44.4206 32.1995 44.5762 32.6837 44.5762 33.1702C44.5762 33.8714 44.3089 34.4805 43.7742 34.9976C43.244 35.5148 42.5976 35.7733 41.835 35.7733C41.2478 35.7733 40.7153 35.6177 40.2377 35.3066C39.76 34.9911 39.3196 34.4652 38.9164 33.7289Z" fill="white"/>
<line x1="53.7149" y1="14.9324" x2="51.3867" y2="17.2606" stroke="white" stroke-width="0.438596"/>
<line x1="54.0475" y1="16.2625" x2="51.7193" y2="18.5907" stroke="white" stroke-width="0.438596"/>
</svg>
