<svg width="42" height="8" viewBox="0 0 42 8" fill="none" xmlns="http://www.w3.org/2000/svg">
<path d="M1.23802 3.20898H36.3731V4.78839H1.23802C0.819636 4.78839 0.480469 4.43483 0.480469 3.99869C0.480469 3.56255 0.819636 3.20898 1.23802 3.20898Z" fill="#ADB5BD"/>
<path d="M40.9632 3.31212L37.3017 0.837715C37.1838 0.77582 37.0548 0.739975 36.9229 0.732422C36.8105 0.741629 36.7017 0.777655 36.6048 0.837715C36.3834 0.936795 36.2417 1.16575 36.2462 1.41683V6.36563C36.2417 6.61671 36.3834 6.84567 36.6048 6.94475C36.8199 7.0764 37.0866 7.0764 37.3017 6.94475L40.9632 4.47034C41.1494 4.34159 41.2614 4.12416 41.2614 3.89123C41.2614 3.6583 41.1494 3.44087 40.9632 3.31212Z" fill="#ADB5BD"/>
</svg>
