<svg width="63" height="62" viewBox="0 0 63 62" fill="none" xmlns="http://www.w3.org/2000/svg">
<circle cx="31.6953" cy="31" r="31" fill="#E3E6E7"/>
<path d="M31.0612 11.7676C35.268 11.7676 38.681 15.2781 38.681 19.6051C38.681 23.932 35.268 27.4426 31.0612 27.4426C26.8544 27.4426 23.4414 23.932 23.4414 19.6051C23.4414 15.2781 26.8544 11.7676 31.0612 11.7676ZM34.8711 30.0551C41.2011 30.0551 46.3008 35.3005 46.3008 41.8113V43.1176C46.3008 46.0158 44.0387 48.3426 41.2209 48.3426H20.9015C18.0837 48.3426 15.8216 46.0158 15.8216 43.1176V41.8113C15.8216 35.3005 20.9213 30.0551 27.2513 30.0551H34.8711Z" fill="white"/>
</svg>
