<svg width="66" height="33" viewBox="0 0 66 33" fill="none" xmlns="http://www.w3.org/2000/svg">
<path d="M64.775 17.7695H7.90513V15.2131H64.775C65.4522 15.2131 66.0012 15.7854 66.0012 16.4913C66.0012 17.1973 65.4522 17.7695 64.775 17.7695Z" fill="#6D757E"/>
<path d="M0.478004 17.6077L6.40452 21.6128C6.59545 21.713 6.80417 21.771 7.01761 21.7832C7.19954 21.7683 7.37574 21.71 7.5326 21.6128C7.8909 21.4524 8.12035 21.0818 8.11299 20.6754V12.6653C8.12035 12.2589 7.8909 11.8883 7.5326 11.7279C7.18436 11.5148 6.75276 11.5148 6.40452 11.7279L0.478004 15.733C0.176616 15.9414 -0.00457191 16.2933 -0.00457191 16.6703C-0.00457191 17.0474 0.176616 17.3993 0.478004 17.6077Z" fill="#6D757E"/>
</svg>
