<svg width="19" height="19" viewBox="0 0 19 19" fill="none" xmlns="http://www.w3.org/2000/svg">
<g opacity="0.6">
<path d="M7.88287 0.401197C7.68914 0.421185 7.51707 0.533708 7.42109 0.70317L2.60715 9.12317C2.50005 9.30971 2.50068 9.53923 2.60881 9.72518C2.71693 9.91112 2.9161 10.0252 3.13119 10.0244H5.82663L2.57542 17.609C2.45681 17.8757 2.54671 18.189 2.78867 18.3522C3.03063 18.5155 3.35485 18.4815 3.55772 18.2717L14.3841 7.4394C14.5554 7.26707 14.6062 7.00864 14.5129 6.78429C14.4196 6.55995 14.2005 6.41373 13.9576 6.41364H11.4137L14.4734 1.31182C14.5846 1.12599 14.5874 0.894742 14.4806 0.706314C14.3739 0.517887 14.1741 0.401357 13.9576 0.401197H7.94514C7.9244 0.400122 7.90361 0.400122 7.88287 0.401197ZM8.29176 1.59969H12.8966L9.83218 6.70738C9.72108 6.89303 9.71821 7.12403 9.82465 7.31238C9.9311 7.50073 10.1305 7.61742 10.3468 7.618H12.5053L4.91131 15.212L7.29184 9.66014C7.37142 9.47473 7.35276 9.26177 7.24216 9.09302C7.13155 8.92427 6.94371 8.8222 6.74195 8.8212H4.16519L8.29176 1.59969Z" fill="black"/>
</g>
</svg>
