<svg width="32" height="16" viewBox="0 0 32 16" fill="none" xmlns="http://www.w3.org/2000/svg">
<path d="M31.4055 8.61523H3.83272V7.37577H31.4055C31.7338 7.37577 32 7.65324 32 7.9955C32 8.33777 31.7338 8.61523 31.4055 8.61523Z" fill="#6D757E"/>
<path d="M0.231765 8.53609L3.10518 10.4779C3.19775 10.5265 3.29894 10.5546 3.40243 10.5605C3.49063 10.5533 3.57606 10.525 3.65212 10.4779C3.82583 10.4002 3.93708 10.2205 3.93351 10.0234V6.1398C3.93708 5.94276 3.82583 5.76309 3.65212 5.68533C3.48327 5.58201 3.27402 5.58201 3.10518 5.68533L0.231765 7.62716C0.08564 7.7282 -0.00220752 7.89883 -0.00220752 8.08162C-0.00220752 8.26442 0.08564 8.43505 0.231765 8.53609Z" fill="#6D757E"/>
</svg>
