<svg width="209" height="25" viewBox="0 0 209 25" fill="none" xmlns="http://www.w3.org/2000/svg">
<path d="M197.683 4.56729H197.823C198.147 6.08409 198.288 6.77529 198.616 7.87609L200.524 15.3257H194.937L196.845 7.87609C197.125 6.77529 197.312 6.08409 197.683 4.56729ZM202.754 24.1081H208.017L201.409 0.885688H194.238L187.582 24.1097H192.563L194.051 18.9129H201.266L202.754 24.1081ZM176.176 24.4281C179.062 24.4281 181.855 23.7401 183.673 23.0041V11.3737H175.571V15.0969H178.878V20.2905C178.272 20.6585 177.245 20.8905 176.132 20.8905C172.688 20.8905 171.615 19.1897 171.615 14.2713V11.2777C171.615 6.40569 172.637 4.01369 175.804 4.01369C177.992 4.01369 178.741 5.48569 178.789 7.05049H183.77C183.715 2.95769 180.74 0.429688 175.802 0.429688C168.91 0.429688 166.4 4.38169 166.4 10.7769V14.1801C166.351 21.1209 168.729 24.4297 176.174 24.4297M152.858 4.56729H153C153.323 6.08409 153.466 6.77529 153.789 7.87609L155.701 15.3257H150.113L152.021 7.87609C152.3 6.77529 152.486 6.08409 152.858 4.56729ZM157.932 24.1097H163.188L156.584 0.885688H149.41L142.76 24.1097H147.741L149.229 18.9129H156.441L157.932 24.1081V24.1097ZM132.793 24.1097H137.774V0.885688H132.793V24.1097ZM119.108 24.4297C124.646 24.4297 127.346 21.8985 127.486 17.1689H122.461C122.367 19.4665 121.62 20.8905 119.249 20.8905C116.552 20.8905 115.53 19.0073 115.53 14.1801V10.7769C115.53 5.90169 116.552 4.06489 119.249 4.06489C121.766 4.06489 122.183 5.72089 122.273 7.46809H127.3C127.251 3.42169 124.926 0.525687 119.11 0.525687C112.638 0.525687 110.267 4.52569 110.267 10.7769V14.1801C110.267 20.4777 112.637 24.4297 119.108 24.4297ZM85.4063 24.1097H89.8309V10.6377C89.8309 8.75289 89.7339 6.45369 89.6401 4.56729H89.7856C90.481 6.95769 90.853 8.19929 91.5047 9.99129L96.6732 24.1097H103.934V0.885688H99.5114V13.8105C99.5114 15.5065 99.5599 17.7625 99.6052 19.9225H99.4661C99.0942 18.3113 98.7643 16.7017 97.7875 14.0825L92.9472 0.887288H85.3626V24.1097H85.4063ZM65.1106 24.1097H78.6562V20.3817H70.0915V13.9449H77.8621V10.1785H70.0899V4.56729H78.3295V0.842487H65.1057V24.1065L65.1106 24.1097ZM46.9124 24.1097H59.9469V20.3817H51.8933V0.887288H46.9124V24.1097ZM31.4585 4.56569H31.5992C31.9227 6.08249 32.0682 6.77369 32.3917 7.87449L34.2999 15.3241H28.7158L30.6241 7.87449C30.9022 6.77369 31.0898 6.08249 31.4602 4.56569M36.5333 24.1097H41.794L35.1829 0.885688H28.0155L21.3576 24.1097H26.3385L27.8263 18.9129H35.0438L36.5349 24.1081L36.5333 24.1097ZM6.04282 20.5673V13.8121H9.0702C11.6302 13.8121 12.8382 14.9609 12.8382 17.2105C12.8382 19.6905 11.2566 20.6153 8.9764 20.6153H6.04282V20.5673ZM6.04282 10.2681V4.42969H9.16399C11.441 4.42969 12.4194 5.43769 12.4194 7.32569C12.4194 9.21369 11.3084 10.2697 9.21089 10.2697L6.04282 10.2681ZM1.06188 24.1097H9.85938C14.7918 24.1097 17.8159 22.3577 17.8159 17.5337C17.8159 14.4521 16.0047 12.3401 12.6506 12.0137V11.8793C15.6263 11.3737 17.3987 9.76409 17.3987 6.68409C17.3987 2.68089 15.07 0.888888 10.0923 0.888888H1.0166V24.1097H1.06188Z" fill="black"/>
</svg>
