<svg width="273" height="25" viewBox="0 0 273 25" fill="none" xmlns="http://www.w3.org/2000/svg">
<path d="M262.109 4.78125L255.625 24.0781H251.078L259.578 1.32812H262.484L262.109 4.78125ZM267.531 24.0781L261.016 4.78125L260.625 1.32812H263.547L272.094 24.0781H267.531ZM267.234 15.625V19.0156H255.031V15.625H267.234Z" fill="black"/>
<path d="M244.734 1.32812V24.0781H240.453V1.32812H244.734ZM251.797 1.32812V4.71875H233.469V1.32812H251.797Z" fill="black"/>
<path d="M231.672 20.7031V24.0781H219.578V20.7031H231.672ZM220.891 1.32812V24.0781H216.594V1.32812H220.891ZM230.094 10.7188V14.0156H219.578V10.7188H230.094ZM231.625 1.32812V4.71875H219.578V1.32812H231.625Z" fill="black"/>
<path d="M212.219 1.32812V24.0781H207.906L198.234 8.29688V24.0781H193.938V1.32812H198.234L207.938 17.125V1.32812H212.219Z" fill="black"/>
<path d="M190.953 20.7031V24.0781H178.859V20.7031H190.953ZM180.172 1.32812V24.0781H175.875V1.32812H180.172ZM189.375 10.7188V14.0156H178.859V10.7188H189.375ZM190.906 1.32812V4.71875H178.859V1.32812H190.906Z" fill="black"/>
<path d="M163.094 19.625L168.766 1.32812H173.531L165.5 24.0781H162.328L163.094 19.625ZM157.859 1.32812L163.5 19.625L164.312 24.0781H161.109L153.109 1.32812H157.859Z" fill="black"/>
<path d="M151.25 12.7031V15.9688H142.703V12.7031H151.25Z" fill="black"/>
<path d="M131.016 4.78125L124.531 24.0781H119.984L128.484 1.32812H131.391L131.016 4.78125ZM136.438 24.0781L129.922 4.78125L129.531 1.32812H132.453L141 24.0781H136.438ZM136.141 15.625V19.0156H123.938V15.625H136.141Z" fill="black"/>
<path d="M117.906 12.3125V21.1719C117.573 21.599 117.047 22.0625 116.328 22.5625C115.62 23.0625 114.693 23.4948 113.547 23.8594C112.401 24.2135 110.995 24.3906 109.328 24.3906C107.88 24.3906 106.557 24.151 105.359 23.6719C104.161 23.1823 103.13 22.4688 102.266 21.5312C101.401 20.5938 100.734 19.4479 100.266 18.0938C99.7969 16.7396 99.5625 15.1927 99.5625 13.4531V11.9531C99.5625 10.2135 99.7812 8.66667 100.219 7.3125C100.667 5.95833 101.302 4.8125 102.125 3.875C102.958 2.9375 103.953 2.22396 105.109 1.73438C106.276 1.24479 107.578 1 109.016 1C110.943 1 112.526 1.31771 113.766 1.95312C115.016 2.58854 115.974 3.46354 116.641 4.57812C117.307 5.68229 117.724 6.95312 117.891 8.39062H113.703C113.589 7.59896 113.359 6.90625 113.016 6.3125C112.672 5.70833 112.182 5.23958 111.547 4.90625C110.922 4.5625 110.109 4.39062 109.109 4.39062C108.266 4.39062 107.521 4.55729 106.875 4.89062C106.229 5.22396 105.688 5.70833 105.25 6.34375C104.812 6.97917 104.479 7.76562 104.25 8.70312C104.031 9.64062 103.922 10.7135 103.922 11.9219V13.4531C103.922 14.6719 104.047 15.7552 104.297 16.7031C104.547 17.6406 104.906 18.4323 105.375 19.0781C105.854 19.7135 106.443 20.1979 107.141 20.5312C107.849 20.8542 108.651 21.0156 109.547 21.0156C110.359 21.0156 111.031 20.9479 111.562 20.8125C112.104 20.6667 112.536 20.4948 112.859 20.2969C113.182 20.099 113.432 19.9062 113.609 19.7188V15.4531H109.094V12.3125H117.906Z" fill="black"/>
<path d="M97.1719 20.7031V24.0781H85.0781V20.7031H97.1719ZM86.3906 1.32812V24.0781H82.0938V1.32812H86.3906ZM95.5938 10.7188V14.0156H85.0781V10.7188H95.5938ZM97.125 1.32812V4.71875H85.0781V1.32812H97.125Z" fill="black"/>
<path d="M72.1719 1.32812V24.0781H67.8906V1.32812H72.1719ZM79.2344 1.32812V4.71875H60.9062V1.32812H79.2344Z" fill="black"/>
<path d="M52.2344 1.32812V24.0781H47.9531V1.32812H52.2344ZM59.2969 1.32812V4.71875H40.9688V1.32812H59.2969Z" fill="black"/>
<path d="M39.7344 12.125V13.2969C39.7344 15.0156 39.5052 16.5625 39.0469 17.9375C38.5885 19.3021 37.9375 20.4635 37.0938 21.4219C36.25 22.3802 35.2448 23.1146 34.0781 23.625C32.9115 24.1354 31.6146 24.3906 30.1875 24.3906C28.7812 24.3906 27.4896 24.1354 26.3125 23.625C25.1458 23.1146 24.1354 22.3802 23.2812 21.4219C22.4271 20.4635 21.7656 19.3021 21.2969 17.9375C20.8281 16.5625 20.5938 15.0156 20.5938 13.2969V12.125C20.5938 10.3958 20.8281 8.84896 21.2969 7.48438C21.7656 6.11979 22.4219 4.95833 23.2656 4C24.1094 3.03125 25.1146 2.29167 26.2812 1.78125C27.4583 1.27083 28.75 1.01562 30.1562 1.01562C31.5833 1.01562 32.8802 1.27083 34.0469 1.78125C35.2135 2.29167 36.2188 3.03125 37.0625 4C37.9167 4.95833 38.5729 6.11979 39.0312 7.48438C39.5 8.84896 39.7344 10.3958 39.7344 12.125ZM35.3906 13.2969V12.0938C35.3906 10.8542 35.276 9.76562 35.0469 8.82812C34.8177 7.88021 34.4792 7.08333 34.0312 6.4375C33.5833 5.79167 33.0312 5.30729 32.375 4.98438C31.7188 4.65104 30.9792 4.48438 30.1562 4.48438C29.3229 4.48438 28.5833 4.65104 27.9375 4.98438C27.3021 5.30729 26.7604 5.79167 26.3125 6.4375C25.8646 7.08333 25.5208 7.88021 25.2812 8.82812C25.0521 9.76562 24.9375 10.8542 24.9375 12.0938V13.2969C24.9375 14.526 25.0521 15.6146 25.2812 16.5625C25.5208 17.5104 25.8646 18.3125 26.3125 18.9688C26.7708 19.6146 27.3229 20.1042 27.9688 20.4375C28.6146 20.7708 29.3542 20.9375 30.1875 20.9375C31.0208 20.9375 31.7604 20.7708 32.4062 20.4375C33.0521 20.1042 33.5938 19.6146 34.0312 18.9688C34.4792 18.3125 34.8177 17.5104 35.0469 16.5625C35.276 15.6146 35.3906 14.526 35.3906 13.2969Z" fill="black"/>
<path d="M9.71875 13.9375H3.90625L3.875 10.9062H8.85938C9.71354 10.9062 10.4271 10.7865 11 10.5469C11.5729 10.3073 12.0052 9.95833 12.2969 9.5C12.599 9.04167 12.75 8.48438 12.75 7.82812C12.75 7.09896 12.6094 6.50521 12.3281 6.04688C12.0573 5.58854 11.6302 5.25521 11.0469 5.04688C10.4635 4.82812 9.72396 4.71875 8.82812 4.71875H5.29688V24.0781H1V1.32812H8.82812C10.1198 1.32812 11.2708 1.45312 12.2812 1.70312C13.3021 1.94271 14.1667 2.31771 14.875 2.82812C15.5833 3.33854 16.1198 3.97917 16.4844 4.75C16.8594 5.52083 17.0469 6.4375 17.0469 7.5C17.0469 8.4375 16.8281 9.30208 16.3906 10.0938C15.9635 10.875 15.3021 11.5104 14.4062 12C13.5208 12.4896 12.3958 12.7708 11.0312 12.8438L9.71875 13.9375ZM9.53125 24.0781H2.64062L4.4375 20.7031H9.53125C10.3854 20.7031 11.0885 20.5625 11.6406 20.2812C12.2031 20 12.6198 19.6146 12.8906 19.125C13.1719 18.625 13.3125 18.0521 13.3125 17.4062C13.3125 16.6979 13.1875 16.0833 12.9375 15.5625C12.6979 15.0417 12.3125 14.6406 11.7812 14.3594C11.2604 14.0781 10.5729 13.9375 9.71875 13.9375H5.25L5.28125 10.9062H10.9688L11.9531 12.0781C13.2656 12.0885 14.3333 12.349 15.1562 12.8594C15.9896 13.3698 16.6042 14.026 17 14.8281C17.3958 15.6302 17.5938 16.4948 17.5938 17.4219C17.5938 18.8802 17.276 20.1042 16.6406 21.0938C16.0156 22.0833 15.099 22.8281 13.8906 23.3281C12.6927 23.8281 11.2396 24.0781 9.53125 24.0781Z" fill="black"/>
</svg>
