<svg width="175" height="25" viewBox="0 0 175 25" fill="none" xmlns="http://www.w3.org/2000/svg">
<path d="M129.842 24.0159L124.479 14.3704C125.643 13.7991 126.626 12.9023 127.315 11.7833C128.003 10.6642 128.369 9.36854 128.37 8.04556C128.37 4.16441 125.289 1.00664 121.502 1.00664H110.032V24.015H115.133V15.0845H119.193L124.158 24.0159H129.842ZM115.049 10.6429V5.4593H120.547L120.526 5.46816C122.199 5.56024 123.265 6.55455 123.265 8.05618C123.265 9.54144 122.123 10.5822 120.42 10.6442H115.049V10.6429ZM89.2009 24.0159V1.00664H105.971V5.39689H94.4396V10.0001H104.55V14.4881H94.4396V19.3964H106.541V24.0159H89.2009ZM65.2827 24.0159L59.9196 14.3704C61.0836 13.7991 62.0663 12.9022 62.7545 11.7831C63.4428 10.6641 63.8086 9.36845 63.8097 8.04556C63.8097 4.16441 60.7294 1.00664 56.9434 1.00664H45.4723V24.015H50.5737V15.0845H54.6347L59.5992 24.0159H65.2827ZM50.4886 10.6429V5.4593H55.9868L55.9652 5.46816C57.6386 5.56024 58.7057 6.55455 58.7057 8.05618C58.7057 9.54144 57.5631 10.5822 55.8599 10.6442H50.4886V10.6429ZM31.8787 24.583C38.0156 24.583 41.6807 20.9657 41.6807 14.9078V1.02347H36.4424V14.5488C36.4424 17.8243 34.7789 19.7031 31.8791 19.7031H31.8761C28.9762 19.7031 27.3136 17.8248 27.3136 14.5488V1.02347H22.0732V14.9087C22.0732 20.9662 25.7382 24.5835 31.8761 24.5835L31.8787 24.583ZM15.222 11.2724C18.2449 12.3291 19.7183 14.9654 19.7183 17.5074C19.7183 21.0888 16.8815 24.0044 13.3909 24.0159H1V1.00487H12.4124C15.383 1.0332 17.778 3.50833 17.7815 6.5541C17.7834 7.49904 17.5491 8.42873 17.1011 9.25453C16.653 10.0803 16.0061 10.7747 15.222 11.2715V11.2724ZM6.14241 19.7226H11.8695C13.6699 19.7226 14.6118 18.3463 14.6118 16.9854C14.6118 15.8893 13.7615 14.346 11.8695 14.346H6.14241V19.7226ZM10.3361 10.0541C11.6549 10.0541 12.6896 9.00975 12.6896 7.67634C12.6896 6.38721 11.61 5.29861 10.3352 5.29861H6.14241V10.0541H10.3361ZM81.8919 11.268C84.9148 12.3238 86.3883 14.9609 86.3883 17.5029C86.3883 21.0848 83.5515 23.9991 80.0609 24.0115L67.6704 24.0106V1.00045L79.081 1C82.0526 1.02878 84.4476 3.50435 84.451 6.55056C84.4528 7.49537 84.2186 8.42491 83.7705 9.25055C83.3224 10.0762 82.6755 10.7704 81.8915 11.2671L81.8919 11.268ZM72.8124 19.7182H78.5391C80.3394 19.7182 81.2813 18.3418 81.2813 16.981C81.2813 15.8853 80.4301 14.3416 78.5391 14.3416H72.8124V19.7182ZM77.0047 10.0496C78.3253 10.0496 79.36 9.00532 79.36 7.67191C79.36 6.38277 78.2804 5.29418 77.0047 5.29418H72.8124V10.0496H77.0047ZM152.04 24.0159L146.677 14.3704C147.841 13.799 148.824 12.9021 149.512 11.783C150.2 10.664 150.566 9.36841 150.567 8.04556C150.567 4.16441 147.487 1.00664 143.701 1.00664H132.23V24.015H137.332V15.0845H141.392L146.357 24.0159H152.041H152.04ZM137.246 10.6429V5.4593H142.745L142.723 5.46816C144.396 5.56024 145.464 6.55455 145.464 8.05618C145.464 9.54144 144.321 10.5822 142.618 10.6442H137.246V10.6429ZM159.494 24.0159V14.64L150.59 1.00664H157.131L162.257 8.91723L167.404 1.00664H173.945L165.02 14.64V24.0159H159.494Z" fill="black"/>
</svg>
