<svg width="152" height="25" viewBox="0 0 152 25" fill="none" xmlns="http://www.w3.org/2000/svg">
<path d="M65.0655 1.07863H62.169L52.1442 24.0151H56.8651L59.1033 18.9327H71.0277L73.2661 24.0151H77.9681L67.9619 1.07863H65.0655ZM65.0655 14.3942H61.0593L65.0655 5.3171L65.0843 5.27959L69.0716 14.3942H65.0655ZM115.622 14.8255H126.079V10.306H115.622V5.35461H127.339V1.07863H110.656V24.0151H128.562V19.7392H115.622V14.8255ZM139.321 19.7392V1.07863H134.355V24.0151H151.132V19.7767L139.321 19.7392ZM43.1915 9.34928H32.6025V1.07863H27.6371V24.0151H32.6025V14.2629H43.1915V24.0151H48.1569V1.11614H43.1915V9.34928ZM98.8074 15.3507L88.6133 1.11614L86.8265 1.07863H82.8389V24.0151H86.8265V7.26781L98.8074 24.0151H103.077V1.11614H98.8074V15.3507ZM18.0073 16.5884L17.4055 17.3011L16.7662 17.9387L15.976 18.4639L15.1485 18.914L14.2645 19.2328L13.3053 19.4203L12.3273 19.4954L11.6504 19.4766L10.9545 19.3641L10.296 19.214L9.65649 18.9702L9.01701 18.6699L8.45276 18.3138L7.88852 17.9012L7.38069 17.4511L6.91049 16.926L6.49671 16.3821L6.13935 15.8008L5.83868 15.1819L5.63179 14.5442L5.46226 13.8691L5.36822 13.1939L5.3306 12.5L5.36822 11.8061L5.46226 11.1312L5.63179 10.4748L5.83868 9.8559L6.13935 9.23701L6.49671 8.63661L6.91049 8.07399L7.38069 7.56762L7.88852 7.09902L8.45276 6.70492L9.01701 6.34859L9.65649 6.06754L10.296 5.82373L10.9545 5.67343L11.6504 5.56091L12.3273 5.5234L13.042 5.56091L13.7191 5.67343L14.3773 5.82373L15.0359 6.06754L15.6187 6.34859L16.2205 6.70492L16.7848 7.09902L17.2926 7.56762L17.8569 8.22402L18.3271 8.89917L22.7658 6.64892L22.352 5.9735L21.863 5.3171L21.374 4.69821L20.8098 4.07932L19.907 3.27315L18.9854 2.59773L17.9697 1.99785L16.8976 1.49123L15.8444 1.11614L14.6783 0.816332L13.5124 0.628529L12.3273 0.572266L11.1047 0.628529L9.92006 0.834826L8.79131 1.11614L7.68163 1.52873L6.64717 2.0351L5.63179 2.61674L4.70993 3.31065L3.88237 4.07932L3.11123 4.94202L2.41533 5.86124L1.79466 6.8362L1.32445 7.86769L0.910672 8.97419L0.609741 10.1182L0.421659 11.3L0.365234 12.5L0.421659 13.7003L0.609741 14.8443L0.873056 15.9695L1.26803 17.076L1.77585 18.1075L2.3589 19.1203L3.07388 20.058L3.88237 20.9207L4.74755 21.7271L5.68796 22.4398L6.7036 23.0399L7.73805 23.5275L8.84773 23.9214L9.97623 24.2214L11.1423 24.3715L12.3273 24.4277L13.5124 24.3715L14.6783 24.2214L15.8444 23.9214L16.8976 23.5275L17.9697 23.0399L18.9854 22.4398L19.907 21.7271L20.8098 20.9207L21.4304 20.283L21.9947 19.5704L22.5028 18.8202L22.9351 18.0513L18.5152 15.8008L18.0073 16.5884Z" fill="black"/>
</svg>
