<svg width="105" height="25" viewBox="0 0 105 25" fill="none" xmlns="http://www.w3.org/2000/svg">
<path fill-rule="evenodd" clip-rule="evenodd" d="M3.11153 1.09619L35.3922 0.980481C36.5576 0.976605 37.5143 1.90835 37.5187 3.05159L37.5874 22.1893C37.5912 23.3319 36.6412 24.2709 35.4758 24.2753L3.19513 24.391C2.03031 24.3955 1.07309 23.4631 1.06866 22.3205L1.00001 3.18224C0.996136 2.03901 1.9456 1.10062 3.11153 1.09619Z" fill="#636363"/>
<path fill-rule="evenodd" clip-rule="evenodd" d="M13.7858 15.6476L13.6152 10.5094C10.918 10.4529 8.32426 10.4945 5.63531 10.7403C5.20625 10.7231 4.80765 10.6041 4.43395 10.1817C2.83065 8.50529 2.51896 8.20522 5.27712 8.11996C11.7667 7.92065 30.617 7.39914 33.982 8.10944C36.8353 8.98029 33.6492 11.8525 33.2473 12.4925L28.9905 17.2077C28.1695 17.8748 27.2449 18.0481 26.0352 18.1649L11.9361 18.15C10.8903 18.1134 10.7918 17.949 10.3256 17.5011L9.50404 16.4902C9.57324 16.0418 9.30252 15.8037 10.035 15.745L13.7858 15.6476ZM19.6005 10.4097C21.9584 10.3018 24.0023 10.4026 26.0114 10.5631C27.3761 10.7984 27.3972 10.7873 26.637 12.116L25.1899 14.8232C24.8461 15.4472 24.582 15.5906 24.0095 15.6332L19.8496 15.6171L19.6005 10.4097Z" fill="white"/>
<path fill-rule="evenodd" clip-rule="evenodd" d="M40.8037 24.3936H46.7463C48.6879 24.3936 51.9476 21.4849 51.9476 18.0906V7.87627C51.5313 7.27282 52.3318 2.21214 46.0792 1.6026C45.8672 1.58212 40.8027 1.6026 40.8027 1.6026L40.8037 24.3936ZM44.9863 19.9364V5.55326C45.597 5.45195 47.388 5.2759 47.388 8.06561V17.5392C47.388 19.4077 46.459 19.9364 44.9863 19.9364ZM53.7685 24.0886H58.4538V1.1896H53.7685V24.0886ZM60.2758 24.0886H69.9326V20.159H64.9877V14.9195H69.0003V10.2281H65.0635V5.57208H70.3584V1.41769H60.2752L60.2758 24.0886ZM70.8184 16.9336V18.9814C70.8184 22.8894 73.4581 24.6472 76.1404 24.6472C79.1809 24.6472 81.7597 23.3905 82.0636 18.1443C82.0808 17.8371 82.119 17.4877 82.0387 17.1616C80.4426 10.656 74.6047 9.98613 74.9053 6.37539C75.0359 4.80587 75.6892 4.62151 76.2351 4.62151C77.1403 4.62151 77.3534 5.58925 77.3534 8.17024H81.5825V7.45053C81.5825 2.46792 78.9667 0.642062 76.1404 0.698532C72.9311 0.762199 70.8937 2.5266 70.5748 6.43574C70.5599 6.61899 70.5173 6.77123 70.5283 7.01926C70.8334 13.9146 77.7797 15.0684 77.7797 18.1515C77.7797 19.6624 77.2327 20.5216 76.1902 20.4884C75.3543 20.4624 74.82 19.8135 74.82 18.2157V16.9336H70.8184ZM83.2168 24.0886H93.0254V20.159H87.777V14.8431H91.715V10.3803H88.0051V5.57208H93.1489V1.266H83.2174L83.2168 24.0886ZM94.3358 24.0886H103.523V20.0826H99.2492V1.49409H94.3358V24.0886ZM102.682 1.50683C102.51 1.50653 102.34 1.54026 102.181 1.60606C102.022 1.67187 101.878 1.76845 101.757 1.89026C101.635 2.01206 101.539 2.15667 101.474 2.31576C101.409 2.47486 101.375 2.64529 101.376 2.81725C101.376 3.16457 101.513 3.49795 101.758 3.74432C102.002 3.99069 102.335 4.12994 102.682 4.13156C103.399 4.13156 104 3.54305 104 2.81725C104 2.10751 103.391 1.50683 102.682 1.50683ZM102.682 1.61921C103.324 1.61921 103.888 2.1745 103.888 2.81725C103.888 3.46333 103.349 4.01474 102.682 4.01474C102.366 4.01169 102.064 3.88428 101.842 3.66013C101.619 3.43598 101.494 3.13315 101.493 2.81725C101.493 2.1828 102.006 1.61921 102.682 1.61921ZM102.377 2.89255H102.369C102.377 2.86708 102.386 2.85047 102.419 2.85047H102.477C102.665 2.85047 102.752 3.07137 102.844 3.21808C102.949 3.36423 103.023 3.49378 103.212 3.53475C103.241 3.51814 103.374 3.53475 103.374 3.49323C103.374 3.49323 103.212 3.43067 103.194 3.4135C103.023 3.22663 102.877 3.01752 102.761 2.79179C102.839 2.75207 102.907 2.69325 102.957 2.62071C102.993 2.55655 103.016 2.48547 103.024 2.412C103.008 2.15733 102.761 2.08259 102.541 2.06986C102.377 2.06986 102.224 2.07429 102.061 2.07429C102.043 2.07429 102.018 2.07429 102.018 2.09034C102.018 2.1075 102.018 2.10751 102.061 2.11581C102.185 2.13242 102.215 2.24093 102.215 2.34557C102.215 2.51608 102.215 2.70376 102.206 2.89974C102.215 2.98777 102.215 3.07967 102.215 3.16659C102.215 3.20866 102.215 3.28396 102.206 3.31274C102.197 3.4135 102.144 3.46721 102.11 3.47607C102.085 3.48437 102.052 3.47606 102.052 3.50928C102.052 3.51759 102.069 3.52589 102.094 3.53419C102.11 3.52589 102.119 3.52589 102.119 3.52589H102.536C102.536 3.52589 102.541 3.52589 102.557 3.53419C102.581 3.52589 102.606 3.51759 102.606 3.50043C102.599 3.47607 102.541 3.47607 102.536 3.47607C102.494 3.46333 102.402 3.46721 102.377 3.30444V2.89255ZM102.444 2.76632C102.386 2.76632 102.377 2.76244 102.377 2.69545C102.377 2.55816 102.377 2.46626 102.369 2.37878C102.386 2.27858 102.348 2.14128 102.486 2.14128C102.691 2.14128 102.862 2.29519 102.862 2.49947C102.862 2.74584 102.632 2.76632 102.444 2.76632Z" fill="black"/>
</svg>
