<svg width="90" height="25" viewBox="0 0 90 25" fill="none" xmlns="http://www.w3.org/2000/svg">
<path d="M0.299401 0.449103H11.9261C21.9062 0.449103 25.8483 6.33732 25.8483 12.5249C25.8483 18.8623 20.8583 24.4511 11.2774 24.4511H0.299401C0.149701 24.4511 0.0499004 24.4012 0.0499004 24.2515C0.0499004 24.2515 0.0499004 24.2515 0.0499004 24.2016C0.0499004 24.1018 0.199601 23.9521 0.349302 23.9521H2.39521C2.94411 24.002 3.39321 23.5529 3.44311 23.004C3.44311 22.9541 3.44311 22.9042 3.44311 22.8543V2.04591C3.49301 1.49701 3.09381 0.998005 2.54491 0.948105C2.49501 0.948105 2.39521 0.948105 2.34531 0.948105H0.249501C0.0998004 0.948105 0 0.848303 0 0.748503C0 0.748503 0 0.748504 0 0.698604C0 0.598803 0.0499004 0.449103 0.299401 0.449103ZM7.53493 23.3533C7.53493 23.8523 7.78443 24.0519 8.13373 24.0519H11.2275C18.8124 24.0519 21.5569 18.2635 21.5569 12.4252C21.5569 6.58683 18.6627 0.948105 12.2255 0.948105H8.03393C7.78443 0.948105 7.58483 1.1477 7.53493 1.39721C7.53493 1.44711 7.53493 1.44711 7.53493 1.49701V23.3533ZM26.9461 0.449103C26.7465 0.449103 26.5968 0.548902 26.5968 0.648702C26.5968 0.748503 26.6966 0.898203 26.7964 0.898203H26.8463H28.8922C29.3413 0.898203 29.7904 1.2475 29.7904 2.14571V22.9541C29.7904 23.4032 29.4411 24.0519 28.8922 24.0519H26.8463C26.6966 24.0519 26.5968 24.1517 26.5968 24.2515V24.3014C26.5968 24.4012 26.5968 24.501 26.8463 24.501H36.7764C36.9261 24.501 37.1257 24.501 37.1257 24.3513C37.1257 24.2016 37.0759 24.0519 36.8263 24.0519H34.8802C34.3313 24.0519 33.8822 23.6028 33.8822 23.0539V1.89621C33.8323 1.39721 34.2315 0.948103 34.7804 0.898203C34.8303 0.898203 34.8802 0.898203 34.98 0.898203H36.8263C36.9761 0.898203 37.0759 0.798404 37.0759 0.698604C37.0759 0.598803 36.976 0.449103 36.7764 0.449103H26.9461ZM42.3653 12.4751C42.3653 5.83832 45.3094 0.449103 50.8982 0.449103C56.3872 0.449103 59.4311 5.83832 59.4311 12.4751C59.4311 19.1118 56.6367 24.501 50.8982 24.501C45.3094 24.501 42.3653 19.1118 42.3653 12.4751ZM50.8982 25C58.8323 25 63.8224 19.4112 63.8224 12.5249C63.8224 5.63872 58.8822 0 50.8982 0C42.9142 0 37.9741 5.58882 37.9741 12.4751C37.9741 19.3613 43.1138 25 50.8982 25ZM89.1218 24.3014C86.0279 24.6507 84.2814 19.511 82.7345 17.1158C81.2874 15.02 79.0918 13.6228 76.5968 13.1238C80.6387 12.8743 85.1796 11.5768 85.1796 6.98603C85.1796 3.24351 82.8842 0.449103 74.4511 0.449103H64.7705C64.6208 0.449103 64.521 0.548902 64.521 0.648702C64.521 0.798403 64.6208 0.898203 64.7705 0.898203H67.016C67.4651 0.898203 67.9142 1.2475 67.9142 2.14571V22.9541C67.9142 23.4032 67.6148 24.0519 67.016 24.0519H64.8204C64.6707 24.0519 64.5709 24.1517 64.5709 24.2515C64.5709 24.4012 64.6707 24.501 64.8204 24.501H75.1497C75.2994 24.501 75.4491 24.4511 75.4491 24.3014C75.4491 24.1517 75.3493 24.0519 75.1497 24.0519H73.0539C72.505 24.0519 72.0559 23.6028 72.0559 23.0539V13.1737H73.1038C78.1936 13.1737 78.5928 18.7126 81.1377 21.8563C82.7345 23.8523 85.1796 25 87.7246 24.9002C88.2735 24.9002 88.7725 24.9002 89.3214 24.8004C89.5709 24.7505 89.6208 24.2515 89.1218 24.3014ZM73.004 0.898203H74.501C77.0459 0.898203 81.2375 1.89621 81.2375 6.78643C81.2375 11.2275 77.5449 12.7246 74.1517 12.7246H71.9561V1.89621C71.9062 1.34731 72.3553 0.898203 72.8543 0.898203C72.9042 0.898203 72.9541 0.898203 73.004 0.898203Z" fill="black"/>
</svg>
