<svg width="260" height="25" viewBox="0 0 260 25" fill="none" xmlns="http://www.w3.org/2000/svg">
<path fill-rule="evenodd" clip-rule="evenodd" d="M1 0.774506H9.41351C15.3682 0.826781 20.2348 6.06807 20.2348 12.4732C20.2348 18.903 15.3682 24.1443 9.41351 24.198H1V0.774506ZM4.67651 3.61525V21.4343H8.45646C13.8926 21.2816 16.5859 17.0707 16.5859 12.5777C16.5859 8.10956 13.8416 4.46817 9.41489 3.71981L4.67651 3.61525ZM34.3962 0.232486C41.5409 0.232486 47.366 5.75854 47.366 12.4993C47.366 19.2401 41.5409 24.7414 34.3962 24.7414C27.2776 24.7414 21.4525 19.2387 21.4525 12.4993C21.4525 5.75992 27.2776 0.232486 34.3962 0.232486ZM34.4486 3.20256C39.6255 3.20256 43.8453 7.35982 43.8453 12.4732C43.8453 17.559 39.6255 21.719 34.4486 21.719C29.2716 21.719 25.0256 17.5604 25.0256 12.4732C25.0242 7.35982 29.2703 3.20256 34.4486 3.20256ZM48.3755 0.826773H51.8437V21.4852H58.4714V24.1719H48.3755V0.826773ZM69.734 0.103171C72.4259 0.103171 74.9371 0.903818 77.0084 2.24647V6.50829C75.2736 4.44203 72.6851 3.09938 69.7602 3.09938C64.5833 3.09938 60.3634 7.30892 60.3634 12.4732C60.3634 17.6127 64.5833 21.8208 69.7602 21.8208C72.6865 21.8208 75.275 20.4796 77.0084 18.4133V22.726C74.8498 24.1459 72.3196 24.9 69.734 24.8941C62.5892 24.8941 56.7641 19.3157 56.7641 12.4979C56.7641 5.68151 62.5892 0.103171 69.734 0.103171ZM81.7454 21.4095H90.1327V24.1719H78.0951V0.825398H90.1327V3.4598H81.7454V10.4069H90.1327V13.2463H81.7454V21.4095ZM103.336 22.6999C102.956 23.0625 102.519 23.3596 102.042 23.5789C101.567 23.838 101.05 24.0125 100.515 24.0948C100.386 24.1223 100.256 24.1457 100.127 24.1457C99.997 24.1732 99.8673 24.1732 99.7391 24.1732C99.3764 24.1732 99.0137 24.1223 98.651 24.0439C98.2969 23.939 97.9641 23.7728 97.6678 23.5528C97.3271 23.2834 97.0525 22.9399 96.8652 22.5486C96.6393 22.1695 96.4981 21.7462 96.4515 21.3077V21.1523C96.4253 21.0766 96.4253 21.023 96.4253 20.9721C96.4253 20.9212 96.4253 20.8936 96.4515 20.8427V20.6873V20.6364C96.4777 20.6116 96.4777 20.6116 96.4777 20.5855V20.4837V20.4053C96.6335 19.6831 96.97 19.1135 97.4871 18.6485C97.9781 18.1836 98.5214 17.7695 99.0923 17.4338C98.7843 17.0732 98.4992 16.6937 98.2387 16.2975C97.9828 15.9354 97.8468 15.5025 97.8498 15.0594V14.8531C97.876 14.8022 97.876 14.7513 97.876 14.6729C97.9022 14.6729 97.9022 14.6454 97.9022 14.622V14.5945C97.9202 14.5636 97.9293 14.5284 97.9284 14.4927C97.9284 14.4651 97.9546 14.4418 97.9546 14.4142C98.0842 13.8447 98.3683 13.4073 98.8344 13.0977C99.2656 12.8092 99.7657 12.6398 100.284 12.6066H100.62C101.242 12.6575 101.838 12.8914 102.355 13.3055C102.874 13.692 103.132 14.2588 103.132 15.0085C103.132 15.7046 102.898 16.2741 102.485 16.6882C102.071 17.1257 101.579 17.5136 101.06 17.8754L103.547 20.8716C103.78 20.5869 104.038 20.3021 104.271 20.0201C104.477 19.7353 104.711 19.423 104.893 19.1149L105.746 19.9939C105.595 20.2801 105.413 20.5487 105.203 20.7946C105.022 21.0257 104.814 21.2857 104.607 21.5168C104.554 21.5679 104.503 21.6198 104.451 21.6723L104.295 21.825L106.107 24.0205H104.502L103.336 22.6999ZM100.204 23.0356C100.644 22.9847 101.057 22.8553 101.42 22.6215C101.783 22.3875 102.129 22.1292 102.456 21.8484C102.482 21.8484 102.508 21.8208 102.534 21.7975C102.561 21.7975 102.587 21.7699 102.613 21.7466L99.7901 18.3885C99.7639 18.3885 99.7639 18.4161 99.7391 18.4394C99.7129 18.4394 99.6867 18.467 99.6605 18.4903C99.6095 18.5179 99.5833 18.544 99.5308 18.5688C99.5046 18.5688 99.4798 18.5963 99.4522 18.6224C99.2192 18.7751 99.0123 18.9319 98.8055 19.0846C98.5986 19.2401 98.4166 19.4478 98.2608 19.6542C98.2084 19.756 98.1311 19.8605 98.0801 19.9898C98.0211 20.1037 97.9775 20.2249 97.9505 20.3502L97.8732 20.6625C97.847 20.7643 97.847 20.8689 97.847 20.9721C97.847 21.5154 98.0539 22.0066 98.469 22.444C98.8565 22.8581 99.375 23.0892 99.9956 23.0892C99.9956 23.0892 100.022 23.0892 100.022 23.0644H100.127C100.153 23.0644 100.153 23.0369 100.179 23.0369L100.204 23.0356ZM99.1682 14.849V14.9274C99.1682 14.9549 99.142 14.9783 99.142 15.0058V15.0567C99.142 15.3414 99.2192 15.6001 99.375 15.8326C99.5295 16.0912 99.7115 16.3209 99.9184 16.5286C99.9708 16.6071 100.048 16.6841 100.1 16.7598C100.151 16.8382 100.23 16.8918 100.281 16.9661C100.333 16.9413 100.358 16.9152 100.411 16.8904C100.445 16.8567 100.492 16.8375 100.54 16.8368C100.851 16.6566 101.11 16.4502 101.369 16.2191C101.628 15.9853 101.783 15.7005 101.835 15.3401V15.2617V15.1832C101.835 15.1585 101.861 15.1323 101.861 15.1048V15.0539C101.861 14.6935 101.732 14.3826 101.474 14.1749C101.24 13.9549 100.939 13.8189 100.619 13.7883H100.384C100.125 13.7883 99.8673 13.8929 99.6343 14.0469C99.5036 14.1395 99.3943 14.2591 99.3139 14.3974C99.2335 14.5358 99.1838 14.6898 99.1682 14.849ZM125.004 0C129.663 0 133.781 2.37578 136.084 5.914L133.057 7.463C132.202 6.11041 131.017 4.99596 129.614 4.22374C128.21 3.45152 126.633 3.04671 125.031 3.04711C119.801 3.02097 115.555 7.25665 115.555 12.4732C115.555 17.6636 119.801 21.8992 125.031 21.8992C129.431 21.8992 132.901 19.7037 133.159 15.1337H125.6V12.37H132.978C132.978 12.3177 136.733 12.37 136.965 12.37V12.4993C136.965 19.8082 132.978 25 125.006 25C117.006 25 111.933 19.368 111.933 12.4993C111.933 5.63061 117.807 0 125.004 0ZM134.998 24.1719L144.679 0.749736H146.985L156.743 24.1719H152.937L150.246 17.559H141.367L138.727 24.1719H134.998ZM142.713 14.5903L145.844 6.27579L149.029 14.5903H142.713ZM190.761 24.1719L200.443 0.749736H202.746L212.507 24.1719H208.701L206.008 17.559H197.128L194.489 24.1719H190.761ZM198.502 14.5903L201.607 6.27579L204.791 14.5903H198.502ZM237.254 24.1719L246.936 0.749736H249.239L259 24.1719H255.194L252.501 17.559H243.621L240.981 24.1719H237.254ZM244.968 14.5903L248.1 6.27579L251.287 14.5903H244.968ZM165.13 3.48732C167.436 3.74595 168.29 4.7268 168.29 7.02554C168.317 9.3229 166.735 10.5376 164.718 10.5376H161.661V3.46118H165.13V3.48732ZM165.312 13.377H165.493C167.2 13.377 170.255 13.7663 170.255 17.5604C170.255 20.6102 167.588 21.4865 165.054 21.4618L165.674 21.4866H161.661V13.377H165.312ZM160.807 24.1719H166.865C171.008 24.1719 173.986 21.4604 173.986 17.559C173.986 14.5656 172.119 12.2655 169.48 11.363C170.983 10.4069 171.837 8.70247 171.837 6.53305C171.837 2.99483 169.452 0.826774 165.933 0.748361C164.017 0.722224 162.076 0.748361 160.134 0.748361H158.012V24.1705L160.807 24.1719ZM182.914 3.48732C185.22 3.74595 186.074 4.7268 186.101 7.02554C186.126 9.3229 184.547 10.5376 182.527 10.5376H179.472V3.46118H182.914V3.48732ZM183.121 13.377H183.305C184.986 13.377 188.066 13.7663 188.066 17.5604C188.066 20.6102 185.376 21.4865 182.863 21.4618L183.459 21.4866H179.472V13.377H183.121ZM178.619 24.1719H184.677C188.792 24.1719 191.795 21.4604 191.795 17.559C191.795 14.5656 189.907 12.2655 187.265 11.363C188.792 10.4069 189.622 8.70247 189.622 6.53305C189.622 2.99483 187.24 0.826774 183.745 0.748361C181.803 0.722224 179.861 0.748361 177.921 0.748361H175.823V24.1705L178.619 24.1719ZM214.059 0.826773H216.286L232.724 18.1533V0.826773H235.908V24.1719H233.475L217.371 7.02416V24.1719H214.059V0.826773Z" fill="black"/>
</svg>
