<svg width="117" height="25" viewBox="0 0 117 25" fill="none" xmlns="http://www.w3.org/2000/svg">
<path d="M105.078 7.30676L104.862 7.37814C104.019 5.56347 102.814 4.1189 101.249 3.04444C99.7075 1.96995 97.7687 1.43271 95.4325 1.43271C94.1319 1.43271 92.8916 1.70729 91.7115 2.25644C90.5313 2.78177 89.4957 3.53391 88.6046 4.51284C87.7376 5.46792 87.0391 6.62596 86.5092 7.98697C85.9794 9.34798 85.7145 10.8522 85.7145 12.4998C85.7145 14.1473 85.9794 15.6515 86.5092 17.0125C87.0391 18.3735 87.7376 19.5435 88.6046 20.5224C89.4957 21.4775 90.5313 22.2177 91.7115 22.7431C92.8916 23.2683 94.1319 23.5309 95.4325 23.5309C97.7446 23.5309 99.6232 23.1728 101.068 22.4565C102.537 21.7163 103.778 20.5941 104.789 19.0899L105.006 19.1612L104.934 21.4535C104.38 22.0265 103.742 22.5399 103.019 22.9935C102.297 23.4233 101.514 23.7934 100.671 24.1038C99.8523 24.3903 98.9973 24.6052 98.1062 24.7485C97.2151 24.9158 96.324 24.9994 95.4328 24.9994C93.5783 24.9994 91.8081 24.7009 90.1222 24.104C88.4363 23.5071 86.9551 22.6713 85.6786 21.5969C84.4022 20.4986 83.3906 19.1853 82.644 17.6572C81.8974 16.1052 81.5241 14.386 81.5241 12.4997C81.5241 10.6134 81.8974 8.90622 82.644 7.37811C83.3906 5.82607 84.4022 4.50088 85.6786 3.40256C86.9551 2.3042 88.4363 1.4685 90.1222 0.895448C91.8081 0.298503 93.5783 3.08851e-05 95.4328 3.08851e-05C96.324 3.08851e-05 97.2151 0.0716619 98.1062 0.214924C98.9973 0.358186 99.8523 0.585027 100.671 0.895448C101.514 1.18197 102.297 1.55208 103.019 2.00576C103.742 2.43554 104.38 2.93696 104.934 3.51001L105.078 7.30676ZM25.4694 14.1476C25.2047 14.2668 24.9518 14.4221 24.7108 14.6134C24.4698 14.8043 24.3493 15.067 24.3493 15.4014V19.8067C23.1933 21.4542 21.7121 22.7317 19.9057 23.639C18.0994 24.5463 16.1004 25 13.9087 25C12.0542 25 10.284 24.7015 8.59811 24.1046C6.91221 23.5077 5.43102 22.672 4.15453 21.5975C2.87807 20.4992 1.86652 19.1859 1.11989 17.6578C0.373295 16.1058 0 14.3866 0 12.5003C0 10.614 0.373295 8.9068 1.11989 7.3787C1.86652 5.82665 2.87807 4.50147 4.15453 3.40315C5.43102 2.30479 6.91221 1.46909 8.59811 0.896067C10.284 0.299101 12.0542 0.000618055 13.9087 0.000618055C14.7998 0.000618055 15.691 0.0722489 16.5821 0.215511C17.4732 0.358773 18.3282 0.585614 19.1471 0.896036C19.99 1.18256 20.7728 1.55266 21.4953 2.00635C22.2178 2.43613 22.8561 2.93755 23.41 3.5106L23.5548 7.30704L23.338 7.37842C22.4951 5.56373 21.2908 4.11915 19.7254 3.04469C18.184 1.9702 16.2452 1.43296 13.909 1.43296C12.6084 1.43296 11.3681 1.70754 10.188 2.25671C9.00783 2.78203 7.97219 3.53415 7.08105 4.51309C6.21399 5.46819 5.51556 6.62624 4.98575 7.98725C4.45586 9.34824 4.19091 10.8525 4.19091 12.5C4.19091 14.1236 4.4438 15.616 4.94959 16.977C5.47947 18.338 6.17792 19.5079 7.04495 20.4869C7.93605 21.442 8.97167 22.1941 10.1518 22.7433C11.332 23.2686 12.5844 23.5312 13.909 23.5312C16.4138 23.5312 18.5573 23.0537 20.3395 22.0986V15.4011C20.3395 15.067 20.2071 14.8043 19.9423 14.6131C19.7014 14.4222 19.4605 14.267 19.2198 14.1473L19.2528 13.9684C19.3731 13.9903 19.5898 14.0141 19.9031 14.0398C20.2163 14.0617 20.5415 14.0855 20.8785 14.1112H23.9856C24.2746 14.0894 24.5516 14.0656 24.8165 14.0398C25.0813 14.018 25.2859 13.9942 25.4305 13.9684L25.4694 14.1476ZM51.6363 0.752496C51.3953 0.871736 51.1545 1.02701 50.9138 1.21831C50.6728 1.40918 50.5405 1.76734 50.5167 2.29278C50.4946 2.86582 50.4706 3.59408 50.4446 4.47755C50.4446 5.33714 50.4336 6.31609 50.4116 7.41439C50.4116 8.51277 50.4006 9.70664 50.3785 10.996V15.0074C50.3565 16.5594 50.1638 17.8846 49.8003 18.9829C49.439 20.0812 48.9573 21.0005 48.3553 21.7407C47.7773 22.4809 47.127 23.0659 46.4044 23.4957C45.706 23.9255 45.0075 24.2478 44.3091 24.4627C43.6347 24.7016 42.9965 24.8449 42.3944 24.8925C41.7923 24.9641 41.3226 24.9999 40.9854 24.9999C39.6126 24.9999 38.288 24.8209 37.0115 24.4627C35.735 24.1286 34.6151 23.5794 33.6517 22.8152C32.6884 22.0511 31.9177 21.0602 31.3397 19.8425C30.7616 18.6248 30.4726 17.1444 30.4726 15.4013V11.3542V7.62928C30.4726 6.48317 30.4616 5.45646 30.4396 4.54915C30.4396 3.61793 30.4286 2.86579 30.4065 2.29275C30.3845 1.76743 30.2521 1.40928 30.0094 1.21828C29.7684 1.02741 29.5275 0.872138 29.2868 0.752465L29.3199 0.573604C29.4402 0.595441 29.6329 0.619236 29.8981 0.644987C30.1872 0.666825 30.4762 0.690619 30.7652 0.716371C31.0784 0.716371 31.3795 0.72729 31.6684 0.749127H32.9689C33.2579 0.72729 33.559 0.716371 33.872 0.716371C34.1853 0.694534 34.4743 0.670739 34.7391 0.644987C35.0281 0.62315 35.2327 0.599355 35.353 0.573604L35.386 0.752465C35.1213 0.871705 34.8684 1.02698 34.6274 1.21828C34.4107 1.40915 34.2902 1.76731 34.2659 2.29275C34.2439 2.86579 34.2199 3.61793 34.1939 4.54915V15.4013C34.1939 18.0039 34.808 19.926 36.0363 21.1676C37.2646 22.4092 39.083 23.03 41.4915 23.03C42.1899 23.03 42.9847 22.9464 43.8758 22.7791C44.767 22.5882 45.5979 22.2062 46.3686 21.633C47.1633 21.06 47.8257 20.2482 48.3555 19.1976C48.9095 18.147 49.1864 16.7501 49.1864 15.0071C49.1864 13.1208 49.1754 11.5091 49.1534 10.172C49.1534 8.81104 49.1424 7.65299 49.1204 6.69789C49.1204 5.71894 49.1093 4.88323 49.0873 4.19078C49.0653 3.49837 49.0413 2.86563 49.0153 2.29256C48.9932 1.76725 48.8608 1.40909 48.6181 1.2181C48.3771 1.02723 48.1363 0.871942 47.8956 0.752249L47.9286 0.573418C48.1934 0.621007 48.4945 0.668833 48.8318 0.716896C49.1688 0.738734 49.4819 0.749653 49.7711 0.749653C50.0359 0.749653 50.3369 0.738734 50.6742 0.716896C51.0355 0.669307 51.3486 0.621481 51.6136 0.573418L51.6363 0.752496ZM77.851 7.30676L77.6342 7.37814C76.7912 5.56347 75.587 4.1189 74.0216 3.04444C72.4801 1.96995 70.5413 1.43271 68.2052 1.43271C66.9046 1.43271 65.6643 1.70729 64.4841 2.25644C63.304 2.78177 62.2683 3.53391 61.3772 4.51284C60.5102 5.46792 59.8118 6.62596 59.2819 7.98697C58.752 9.348 58.4871 10.8523 58.4871 12.4998C58.4871 14.1472 58.7521 15.6515 59.2819 17.0125C59.8118 18.3735 60.5103 19.5435 61.3773 20.5224C62.2684 21.4775 63.304 22.2177 64.4841 22.7431C65.6643 23.2683 66.9046 23.5309 68.2052 23.5309C70.5173 23.5309 72.3959 23.1728 73.841 22.4565C75.3101 21.7163 76.5504 20.5941 77.5619 19.0899L77.7787 19.1612L77.7067 21.4535C77.1527 22.0265 76.5145 22.5398 75.7919 22.9935C75.0694 23.4233 74.2867 23.7934 73.4437 24.1038C72.6249 24.3903 71.7698 24.6052 70.8787 24.7485C69.9876 24.9157 69.0965 24.9994 68.2054 24.9994C66.3508 24.9994 64.5806 24.7009 62.8948 24.104C61.2088 23.507 59.7277 22.6713 58.4512 21.5969C57.1747 20.4985 56.1631 19.1853 55.4166 17.6571C54.6699 16.1051 54.2966 14.386 54.2966 12.4997C54.2966 10.6134 54.6699 8.90619 55.4166 7.37808C56.1631 5.82603 57.1747 4.50085 58.4512 3.40253C59.7277 2.30417 61.2088 1.46847 62.8948 0.895418C64.5807 0.298472 66.3509 0 68.2054 0C69.0965 0 69.9876 0.071631 70.8787 0.214893C71.7699 0.358155 72.6249 0.584996 73.4437 0.895418C74.2867 1.18194 75.0694 1.55204 75.7919 2.00573C76.5145 2.43551 77.1527 2.93693 77.7066 3.50998L77.851 7.30676ZM115.967 24.3909C115.847 24.369 115.642 24.3452 115.353 24.3195C115.088 24.3195 114.799 24.3086 114.486 24.2867C114.173 24.2867 113.872 24.2758 113.583 24.2539H111.415C111.126 24.2758 110.837 24.2996 110.548 24.3253C110.284 24.3472 110.079 24.3709 109.934 24.3967L109.901 24.2532C110.142 24.1339 110.383 23.9787 110.624 23.7874C110.865 23.5965 110.997 23.2383 111.021 22.7129C111.043 22.1399 111.054 21.5429 111.054 20.9221C111.076 20.3013 111.087 19.5969 111.087 18.809V16.1228V12.5054V8.88808V6.16607C111.087 5.37813 111.076 4.68569 111.054 4.08874C111.054 3.46794 111.043 2.87102 111.021 2.29797C110.999 1.77265 110.867 1.4145 110.624 1.2235C110.383 1.00861 110.142 0.841535 109.901 0.722273L109.934 0.578826C110.079 0.626415 110.284 0.662231 110.548 0.686273C110.837 0.686273 111.126 0.697191 111.415 0.719029C111.729 0.740866 112.03 0.751785 112.319 0.751785H113.583C113.872 0.729948 114.173 0.719029 114.486 0.719029C114.799 0.697191 115.088 0.673397 115.353 0.647645C115.642 0.625808 115.847 0.602013 115.967 0.576261L116 0.71977C115.735 0.839011 115.482 1.00608 115.241 1.22097C115.025 1.41184 114.904 1.77 114.88 2.29543C114.858 2.86848 114.834 3.46541 114.808 4.08621V20.9196C114.83 21.5404 114.854 22.1373 114.88 22.7104C114.902 23.2357 115.022 23.5938 115.241 23.7848C115.482 23.9757 115.735 24.131 116 24.2507L115.967 24.3909Z" fill="black"/>
</svg>
