<svg width="135" height="25" viewBox="0 0 135 25" fill="none" xmlns="http://www.w3.org/2000/svg">
<path fill-rule="evenodd" clip-rule="evenodd" d="M121.265 22.6879C120.985 23.0232 120.762 23.2463 120.566 23.33C120.398 23.4415 120.174 23.4694 119.922 23.4694C119.419 23.4694 118.999 23.3021 118.691 22.9667C118.382 22.6314 118.244 22.0729 118.244 21.2906V19.0825C118.244 18.2723 118.382 17.7139 118.691 17.3785C118.999 17.0432 119.419 16.8758 119.922 16.8758C120.314 16.8758 120.622 16.9874 120.901 17.1833C121.154 17.3785 121.349 17.7139 121.489 18.1887C121.628 18.6914 121.769 18.9989 121.936 19.1662C122.244 19.5015 122.804 19.8369 123.589 20.1994C124.372 20.5348 125.24 20.7021 126.191 20.7021C127.673 20.7021 128.878 20.3668 129.829 19.6689C130.417 19.2498 130.725 18.7472 130.725 18.1329C130.725 17.7139 130.557 17.3506 130.277 16.9874C129.997 16.6241 129.521 16.3166 128.878 16.0921C128.431 15.9248 127.478 15.701 125.995 15.4214C124.177 15.086 122.832 14.6949 121.909 14.2201C120.986 13.7453 120.23 13.1032 119.699 12.2372C119.178 11.3984 118.907 10.4295 118.915 9.44275C118.915 7.87819 119.559 6.50884 120.874 5.30754C122.216 4.13341 123.925 3.54706 126.023 3.54706C126.89 3.54706 127.673 3.63072 128.402 3.82664C129.102 3.99397 129.773 4.30145 130.36 4.6647C130.78 4.24567 131.227 4.05046 131.647 4.05046C132.123 4.05046 132.515 4.21778 132.824 4.55386C133.132 4.88923 133.3 5.44769 133.3 6.22997V8.71696C133.3 9.49924 133.132 10.0577 132.824 10.4217C132.515 10.7291 132.123 10.9244 131.647 10.9244C131.227 10.9244 130.892 10.7849 130.584 10.5332C130.361 10.3659 130.165 10.0026 130.053 9.44347C129.941 8.91217 129.801 8.52104 129.605 8.27005C129.297 7.87891 128.822 7.51565 128.206 7.23606C127.59 6.95647 126.862 6.84493 126.05 6.84493C124.847 6.84493 123.924 7.09663 123.225 7.65581C122.524 8.21427 122.189 8.77273 122.189 9.38769C122.189 9.80672 122.328 10.1979 122.608 10.5611C122.888 10.9522 123.308 11.2597 123.869 11.4549C124.233 11.5944 125.24 11.8461 126.946 12.1814C128.627 12.5175 129.942 12.8808 130.837 13.2712C131.732 13.6616 132.488 14.2766 133.105 15.1425C133.692 15.9806 134 16.9874 134 18.1608C134 19.7811 133.441 21.094 132.292 22.0729C130.753 23.3579 128.822 24 126.443 24C125.548 24 124.652 23.8885 123.785 23.6646C122.911 23.4354 122.065 23.1077 121.265 22.6879ZM74.6677 10.1979V20.1723H76.0106C76.9073 20.1723 77.5505 20.3117 77.9144 20.6192C78.3062 20.956 78.5017 21.3471 78.5017 21.8498C78.5017 22.3246 78.3062 22.7436 77.9144 23.0511C77.5505 23.3586 76.9073 23.498 76.0106 23.498H71.1689C70.2736 23.498 69.6304 23.3586 69.2665 23.0511C68.8747 22.7436 68.7071 22.3246 68.7071 21.8219C68.7071 21.3471 68.8747 20.956 69.2386 20.6192C69.6304 20.3117 70.2177 20.1723 70.9733 20.1723V7.06874C70.3301 7.01297 69.8546 6.84493 69.5186 6.53745C69.1827 6.22997 69.0151 5.83883 69.0151 5.39192C69.0151 4.88923 69.2107 4.49809 69.6024 4.19061C69.9663 3.85525 70.6095 3.71581 71.4783 3.71581H75.535L80.5738 13.8025L85.5258 3.71581H89.6119C90.5072 3.71581 91.1239 3.88314 91.5157 4.19061C91.8796 4.49809 92.0751 4.88923 92.0751 5.39192C92.0751 5.83883 91.9075 6.22997 91.5716 6.53745C91.2357 6.84493 90.7601 7.01297 90.1169 7.06874V20.1723C90.9005 20.1723 91.4598 20.3117 91.8516 20.6471C92.2155 20.956 92.411 21.3471 92.411 21.8498C92.411 22.3246 92.2155 22.7436 91.8237 23.0511C91.4598 23.3586 90.8167 23.498 89.9199 23.498H85.0782C84.1829 23.498 83.5676 23.3586 83.1758 23.0511C82.812 22.7436 82.6165 22.3246 82.6165 21.8219C82.6165 21.3471 82.812 20.956 83.1758 20.6192C83.5676 20.3117 84.1829 20.1723 85.0782 20.1723H86.4225V10.1979L82.1688 19.9771H78.978L74.6677 10.1979ZM51.9708 11.8468H54.5457C55.4976 11.8468 56.337 11.6788 57.0927 11.3999C58.1004 11.0087 58.7715 10.9809 59.1361 10.5339C59.472 10.1149 59.6675 10.0584 59.6675 9.64011C59.6675 8.99727 59.3316 8.41091 58.6598 7.87962C57.9879 7.34904 57.0361 7.06946 55.7497 7.06946H51.9716V11.8468H51.9708ZM51.9708 14.8086V20.173H53.1469C53.9584 20.173 54.5178 20.3124 54.8537 20.6199C55.1896 20.9274 55.3579 21.3478 55.3579 21.8505C55.3579 22.3253 55.1903 22.7444 54.8537 23.0518C54.5171 23.3593 53.9584 23.4987 53.1469 23.4987H48.1368C47.3533 23.4987 46.7939 23.3593 46.458 23.0518C46.1221 22.7444 45.9545 22.3253 45.9545 21.8226C45.9545 21.3478 46.1221 20.9274 46.458 20.6199C46.7939 20.3124 47.3533 20.173 48.1368 20.173H48.669V7.06874H48.1368C47.3533 7.06874 46.7939 6.9293 46.458 6.59322C46.1221 6.28575 45.9545 5.89461 45.9545 5.39192C45.9545 4.88923 46.1221 4.46949 46.458 4.16272C46.7939 3.85596 47.3533 3.71581 48.1368 3.71581H55.6093C58.4635 3.71581 62.9694 4.80557 62.9694 8.40949C62.9694 11.9019 62.3821 11.7066 60.1145 12.9365C61.8771 14.0821 62.6614 15.6738 62.8011 20.1723C63.6405 20.1723 64.9555 20.228 65.2355 20.424C65.7111 20.7593 65.9353 21.2341 65.9353 21.8498C65.9353 22.3246 65.7677 22.7436 65.4597 23.0511C65.1238 23.3586 64.5644 23.5259 63.7522 23.498L58.7987 23.3028C58.6311 16.8215 58.3511 14.6691 55.2168 14.8086H51.9708ZM30.3097 15.3949V20.2009H38.482V18.4411C38.482 17.6309 38.6496 17.0725 38.9296 16.7371C39.2376 16.4003 39.6294 16.233 40.105 16.233C40.5526 16.233 40.9451 16.4003 41.2531 16.7371C41.5611 17.0725 41.7007 17.6309 41.7007 18.4411V23.498H26.6154C25.8318 23.498 25.2724 23.3586 24.9644 23.0511C24.6285 22.7436 24.4602 22.3525 24.4602 21.8498C24.4602 21.375 24.6278 20.9839 24.9644 20.675C25.3003 20.3675 25.8318 20.2002 26.6154 20.2002H27.0917V7.32044H26.6154C25.8318 7.32044 25.2724 7.18101 24.9644 6.87353C24.6285 6.56605 24.4602 6.17491 24.4602 5.67222C24.4602 5.16882 24.6278 4.77839 24.9644 4.4702C25.2724 4.16272 25.8318 4.02329 26.6154 4.02329H41.0003V9.05232C41.0003 9.8346 40.8326 10.3938 40.5526 10.7291C40.2726 11.0645 39.8808 11.2318 39.4052 11.2318C38.9017 11.2318 38.5378 11.0645 38.2298 10.7291C37.9219 10.3938 37.7822 9.83532 37.7822 9.05232V7.32044H30.3097V12.0985H33.136L36.7186 12.0427L36.8862 15.2555L33.136 15.3949H30.3097ZM103.185 15.3949V20.2009H111.386V18.4411C111.386 17.6309 111.525 17.0725 111.805 16.7371C112.113 16.4003 112.505 16.233 112.981 16.233C113.456 16.233 113.82 16.4003 114.129 16.7371C114.437 17.0725 114.577 17.6309 114.577 18.4411V23.498H99.4924C98.7074 23.498 98.176 23.3586 97.8401 23.0511C97.5042 22.7436 97.3366 22.3525 97.3366 21.8498C97.3366 21.375 97.5042 20.9839 97.8401 20.675C98.176 20.3675 98.7354 20.2002 99.4924 20.2002H99.996V7.32044H99.4924C98.7074 7.32044 98.176 7.18101 97.8401 6.87353C97.5042 6.56605 97.3366 6.17491 97.3366 5.67222C97.3366 5.16882 97.5042 4.77839 97.8401 4.4702C98.176 4.16272 98.7074 4.02329 99.4924 4.02329H113.877V9.05232C113.877 9.8346 113.738 10.3938 113.428 10.7291C113.148 11.0645 112.756 11.2318 112.281 11.2318C111.805 11.2318 111.413 11.0645 111.105 10.7291C110.825 10.3938 110.658 9.83532 110.658 9.05232V7.32044H103.185V12.0985H106.012L109.595 12.0427L109.79 15.2555L106.012 15.3949H103.185ZM13.8814 15.1711H6.21335V20.0886H6.77273C7.6401 20.0886 8.25606 20.2559 8.61991 20.5913C8.98376 20.8988 9.17929 21.3192 9.17929 21.8219C9.17929 22.3246 8.98376 22.7157 8.61991 23.0232C8.25606 23.3586 7.6401 23.498 6.77273 23.498H2.37934C1.53991 23.498 0.924661 23.3586 0.532164 23.0232C0.168315 22.7157 0 22.2967 0 21.794C0 21.1798 0.280048 20.7036 0.839429 20.3403C1.11948 20.173 1.73473 20.0886 2.63002 20.0886V6.78915C2.01477 6.73337 1.53919 6.53745 1.20256 6.23069C0.894579 5.92321 0.72698 5.53207 0.72698 5.05727C0.72698 4.55458 0.923229 4.13484 1.28708 3.82807C1.65093 3.52131 2.26761 3.35328 3.13497 3.35328L6.77273 3.38116C7.6401 3.38116 8.25606 3.5206 8.61991 3.82807C8.98376 4.16344 9.17929 4.55458 9.17929 5.05727C9.17929 5.58856 8.98376 6.00759 8.61991 6.31435C8.25606 6.62111 7.6401 6.78915 6.77273 6.78915H6.21335V11.7631H13.8814V6.78915H13.322C12.4546 6.78915 11.8387 6.62183 11.4748 6.31435C11.111 6.00687 10.9154 5.58784 10.9154 5.05727C10.9154 4.55458 11.111 4.13484 11.4748 3.82807C11.8387 3.52131 12.4546 3.35328 13.322 3.35328L16.9605 3.38116C17.8278 3.38116 18.4438 3.5206 18.8077 3.82807C19.1715 4.16344 19.367 4.55458 19.367 5.05727C19.367 5.53207 19.1994 5.92321 18.8915 6.23069C18.5555 6.53816 18.08 6.73409 17.464 6.78915V20.0886C18.3879 20.0886 18.9753 20.2002 19.2267 20.3403C19.8147 20.7036 20.094 21.1798 20.094 21.8219C20.094 22.3246 19.8985 22.7157 19.5346 23.0232C19.1708 23.3586 18.5548 23.498 17.7154 23.498H13.3213C12.4539 23.498 11.838 23.3586 11.4741 23.0232C11.1103 22.7157 10.9147 22.2967 10.9147 21.794C10.9147 21.2913 11.1103 20.8988 11.4741 20.5913C11.838 20.2559 12.4539 20.0886 13.3213 20.0886H13.8807L13.8814 15.1711ZM103.718 0.0282323L107.971 0.754735C108.475 0.838398 108.811 1.03432 108.978 1.3132C109.118 1.5363 109.147 1.788 109.062 2.06759C108.978 2.31316 108.81 2.52097 108.586 2.65394C108.391 2.76549 108.083 2.7941 107.635 2.70972L103.382 1.98322C102.878 1.89955 102.542 1.73151 102.375 1.45264C102.235 1.20093 102.207 0.949946 102.291 0.698244C102.375 0.447257 102.514 0.223443 102.766 0.111178C102.962 0.000342934 103.27 -0.0282577 103.718 0.0282323Z" fill="black"/>
</svg>
