<svg width="143" height="25" viewBox="0 0 143 25" fill="none" xmlns="http://www.w3.org/2000/svg">
<path d="M32.9896 2.51843C32.6509 1.60326 32.0081 1.2091 30.831 1.19111C30.7236 1.18771 25.277 1.19597 25.277 1.19597L17.2141 23.5566H21.1386C21.4585 23.5844 21.78 23.5299 22.0738 23.3982C22.8373 23.0434 23.2119 22.1418 23.3206 21.8342C23.3206 21.842 24.4176 18.7188 24.493 18.5147L32.6041 18.5118C32.7735 19.0386 34.2517 23.5469 34.2517 23.5469H39.5633L36.1942 12.665L32.9896 2.51843ZM31.354 13.9218L25.8882 13.9228C26.478 12.2791 27.9457 8.11977 28.5722 6.43621C29.1137 8.13435 31.3396 13.8669 31.354 13.9218ZM71.2085 1.01712H71.2056C64.923 1.02587 60.3657 5.82966 60.3657 12.4337C60.3657 18.905 65.0236 23.787 71.2085 23.787C77.3899 23.787 82.2373 18.8034 82.2373 12.4337C82.2373 6.03087 77.3899 1.01712 71.2085 1.01712ZM71.3659 18.7985C68.1633 18.7985 65.6535 15.9777 65.6535 12.3734C65.6535 8.80262 68.1094 6.11252 71.3621 6.11252C74.5915 6.11252 76.9333 8.74381 76.9333 12.3734C76.9328 16.0389 74.538 18.7985 71.3659 18.7985ZM96.4502 10.4279L96.2441 10.3666C96.2498 10.3695 94.2009 9.7348 94.1957 9.72897L93.8898 9.61816C92.2165 9.00238 91.0284 8.48574 91.0284 7.49378V7.42088C91.1944 5.77377 94.1966 5.75627 94.2253 5.75627C95.8805 5.75627 97.1531 6.01386 98.7649 6.67387L98.7992 6.68699L98.8684 6.70741C99.2406 6.7842 99.5665 6.79489 99.8304 6.73511L100.276 6.56306C100.917 6.20438 101.554 4.30308 101.799 3.50261L101.878 3.24599L101.681 3.06131C101.603 2.98598 101.134 2.5923 99.4262 1.94347C97.6894 1.28054 95.2297 1.17702 95.2297 1.17702L94.0158 1.17168C87.6778 1.17168 85.2582 5.15555 85.1813 7.83107C85.1289 10.4969 86.619 11.8689 88.8707 13.115C89.8126 13.6468 91.5332 14.1357 92.7809 14.491C92.7747 14.4851 94.0726 14.8769 94.0726 14.8769C96.4335 15.6321 97.3358 16.471 97.1679 17.7725C97.0925 18.2027 96.2947 18.9147 94.482 18.9147C93.103 18.9147 91.8567 18.6989 90.5593 18.2377C89.9362 17.9854 89.2915 17.6598 88.6106 17.2481L88.5777 17.2272L88.508 17.1966C88.1311 17.0532 87.7938 16.9935 87.5041 17.0182L87.0055 17.1276C86.2778 17.4051 85.2658 19.287 84.8612 20.0826L84.7018 20.397L84.9771 20.6191C85.0258 20.6527 86.1519 21.5644 87.1086 22.135C88.2346 22.7707 89.4996 23.231 90.9926 23.5386C91.5947 23.6504 92.5509 23.7914 94.0487 23.7914C98.96 23.7914 102.528 21.2578 102.938 17.4843C103.116 14.0608 101.054 11.8271 96.4502 10.4279ZM106.949 1.22368C106.746 1.22028 105.674 1.24166 105.058 1.82197C104.775 2.08733 104.626 2.44212 104.626 2.84163L104.623 6.37934C104.623 6.37934 110.548 6.37448 111.324 6.37448V23.5649L116.813 23.56V6.37448C117.545 6.37351 121.126 6.37351 121.126 6.37351C121.329 6.37351 122.398 6.35018 123.016 5.77231C123.155 5.64224 123.265 5.48401 123.339 5.30786C123.414 5.13172 123.451 4.94157 123.449 4.74973V1.22368H106.949ZM12.7942 18.5045H6.63229C6.63229 17.6802 6.61511 3.263 6.61511 3.263C6.61511 2.63021 6.42902 2.12815 6.05541 1.77725C5.4585 1.20618 4.56957 1.2091 4.23795 1.21639L1 1.2091L1.00811 23.5561H14.7453L14.7548 20.0048C14.7548 19.5504 14.5644 18.5045 12.7942 18.5045ZM52.0709 5.97401C53.4021 5.88361 54.5225 5.97401 55.5794 6.26853C56.1467 6.46148 56.6592 6.49987 57.0934 6.37497L57.5314 6.17667C58.146 5.79126 58.5859 3.82678 58.7935 2.69485L58.8412 2.42949L58.6169 2.26521C58.5611 2.2239 58.3865 2.09948 56.3972 1.55271C55.0208 1.18062 53.6023 0.994819 52.1783 1.00011L52.0905 1.00108C47.5442 1.00108 40.698 4.05764 40.5019 12.474V12.5216C40.698 20.9409 47.5446 23.9965 52.0938 23.9965L52.1783 23.9999C52.9732 24.0033 54.5831 23.9367 56.3972 23.441C58.3869 22.8986 58.5611 22.7727 58.6193 22.7304L58.8417 22.57L58.794 22.3032C58.5864 21.1649 58.1465 19.2048 57.5319 18.8165V18.8136L57.0953 18.6177C56.6597 18.4967 56.1467 18.5361 55.5713 18.7329C54.5201 19.0206 53.4002 19.114 52.0547 19.0236C48.6116 18.6804 46.5436 16.2936 46.3876 12.4789C46.5431 8.70056 48.6115 6.31422 52.0704 5.97401H52.0709ZM139.712 23.5459C140.559 23.527 142 23.0181 142 21.301L141.984 18.4967L132.311 18.5016C132.311 18.5016 132.327 15.2871 132.327 14.7544H140.312L140.298 9.58462C140.298 9.58462 133.131 9.59337 132.341 9.59337C132.339 8.98196 132.341 6.99464 132.341 6.37983C133.131 6.37983 139.671 6.3706 139.671 6.3706C139.872 6.374 140.967 6.37497 141.559 5.77279C141.973 5.34996 141.992 4.58059 141.992 4.17963V1.22805H126.776L126.778 23.5639L139.712 23.5459Z" fill="black"/>
</svg>
