<svg width="85" height="25" viewBox="0 0 85 25" fill="none" xmlns="http://www.w3.org/2000/svg">
<path fill-rule="evenodd" clip-rule="evenodd" d="M53.2061 3.19758C53.9642 3.96299 54.325 4.90289 54.325 6.01605C54.325 7.12922 53.9277 8.06911 53.1342 8.86918C52.3402 9.63459 51.3651 10.0176 50.2463 10.0176C49.1274 10.0176 48.153 9.63459 47.323 8.86918C46.5649 8.06851 46.1322 7.12922 46.1322 6.01605C46.1322 4.90289 46.5289 3.96299 47.287 3.19758C48.0811 2.39811 49.0561 2.0151 50.2469 2.0151C51.4377 2.0151 52.4487 2.39811 53.2061 3.19758ZM54.0368 2.36285C52.9539 1.35365 51.6906 0.832031 50.2469 0.832031C48.7666 0.832031 47.468 1.35365 46.457 2.36285C45.3741 3.37146 44.833 4.58979 44.833 6.01546C44.833 7.47638 45.3747 8.69471 46.457 9.70331C47.468 10.6779 48.7313 11.1654 50.2469 11.1654C51.7631 11.1654 53.0264 10.6779 54.0368 9.70331C55.1197 8.69471 55.6249 7.47638 55.6249 6.01546C55.6249 4.58979 55.1197 3.37146 54.0368 2.36285ZM57.9711 6.92009C57.9711 8.97314 58.8011 10.0176 60.4617 10.0176C62.0864 10.0176 62.9523 8.97314 62.9523 6.92009V1.04056H64.2156V7.33775C64.2156 8.45092 63.8908 9.35555 63.2046 10.0523C62.5191 10.8177 61.5806 11.1654 60.4617 11.1654C59.3069 11.1654 58.4044 10.8177 57.7188 10.0523C56.9966 9.35555 56.6725 8.45092 56.6725 7.33775V1.04056H57.9717L57.9711 6.92009ZM41.5836 1.04116V9.84373H44.7239V10.9569H40.3203V1.04056H41.5836V1.04116ZM72.5169 5.11142C74.2495 5.77167 75.0801 6.74622 75.0801 8.06851C75.0801 8.97315 74.7553 9.70331 74.1056 10.2954C73.492 10.887 72.7339 11.166 71.8313 11.166C71.0013 11.166 70.2792 10.9222 69.6661 10.3654C69.0884 9.84373 68.7277 9.18228 68.6192 8.38281L69.9184 8.10376C69.9184 8.66065 70.0988 9.11296 70.4961 9.49597C70.8935 9.84372 71.3261 10.0176 71.9039 10.0176C72.4456 10.0176 72.8783 9.80847 73.2756 9.42606C73.6004 9.07831 73.7808 8.62539 73.7808 8.06911C73.7808 7.3037 73.2031 6.67809 72.0123 6.18992L71.2902 5.94734C69.8465 5.28589 69.0884 4.45117 69.0884 3.40672C69.0884 2.6413 69.4132 1.98045 69.9909 1.52753C70.6046 1.04116 71.2902 0.832031 72.1208 0.832031C73.3116 0.832031 74.1782 1.35365 74.7553 2.36285L73.7449 2.91974C73.3475 2.32821 72.8064 2.0151 72.0843 2.0151C71.651 2.0151 71.2177 2.11907 70.8929 2.36285C70.5321 2.6407 70.3511 2.98965 70.3511 3.40611C70.3511 3.99765 70.8203 4.45057 71.8307 4.79832L72.5169 5.11142ZM65.9482 1.04116H67.248V10.9575H65.9482V1.04116Z" fill="black"/>
<path fill-rule="evenodd" clip-rule="evenodd" d="M19.8818 3.11017L13.4835 18.1957L11.7183 14.3264L14.9788 5.46122C15.224 4.77562 16.0819 4.45717 17.5284 4.45717L18.043 3.11017H10.4435L9.95309 4.45717C11.0318 4.45717 11.4731 4.77546 11.3014 5.46122L9.68353 9.96724L6.49663 3.11017C5.90829 2.37556 6.20238 2.00809 7.3547 2.00809V0.416482H0V2.00825C1.37296 2.00825 2.23086 2.37571 2.59872 3.11033L7.99211 14.5715L5.46699 21.306C5.41777 22.212 3.99605 22.6532 1.25029 22.6532L0.735549 24H21.7204L24.6378 17.8042H23.1178C21.6961 21.0122 20.0536 22.6532 18.2149 22.6532H8.58029L10.0022 18.8572L11.2279 21.306H13.9737L21.7203 3.11049C22.0881 2.00841 23.0443 1.42085 24.5397 1.42085V0H18.2148V1.42053C20.127 1.42053 20.6664 2.00825 19.8818 3.11017Z" fill="black"/>
<path fill-rule="evenodd" clip-rule="evenodd" d="M82.4 15.04H83.5144V24.4543L76.7032 17.3291V24.1042H75.5577V14.5938L82.4 21.7512V15.04ZM48.1257 15.0402V20.7967C48.1257 21.8142 47.8388 22.6412 47.2655 23.2781C46.6616 23.9777 45.8342 24.2956 44.7838 24.2956C43.7973 24.2956 42.9705 23.9777 42.3649 23.2781C41.761 22.6412 41.4736 21.8142 41.4736 20.7967V15.0402H42.6202V20.4149C42.6202 22.2916 43.3202 23.2464 44.7838 23.2464C46.279 23.2464 47.0114 22.2916 47.0114 20.4149V15.0402H48.1257ZM52.211 15.0402H57.6526V16.09H55.489V24.105H54.4069V16.09H52.211V15.0402ZM50.0048 15.0402H51.1503V24.105H50.0048V15.0402ZM38.6286 15.0402H39.8697L35.9233 24.6135L31.9775 15.0402H33.2187L35.9239 21.7514L38.6286 15.0402ZM72.7815 19.5879C72.7815 20.6055 72.4312 21.4647 71.7 22.196C71.0316 22.8957 70.1725 23.2458 69.1849 23.2458C68.1985 23.2458 67.3394 22.8957 66.6081 22.196C65.8758 21.4641 65.5261 20.6055 65.5261 19.5879C65.5261 18.5703 65.8441 17.7112 66.5442 17.0115C67.2443 16.2807 68.1356 15.9305 69.1849 15.9305C70.2353 15.9305 71.0944 16.2807 71.7628 17.0115C72.4317 17.7112 72.7815 18.5698 72.7815 19.5879ZM72.5274 16.2484C71.5732 15.3259 70.4588 14.8491 69.1855 14.8491C67.881 14.8491 66.7677 15.3259 65.8124 16.2484C64.8899 17.1704 64.4123 18.2841 64.4123 19.5874C64.4123 20.9228 64.8905 22.0365 65.8124 22.9585C66.7355 23.8494 67.8493 24.2951 69.1855 24.2951C70.4911 24.2951 71.636 23.8494 72.5274 22.9585C73.4504 22.0365 73.9275 20.9228 73.9275 19.5874C73.9281 18.2841 73.451 17.1704 72.5274 16.2484ZM63.9559 15.0402V16.09H61.8234V24.105H60.678V16.09H58.5143V15.0402H63.9559Z" fill="black"/>
</svg>
