<svg width="123" height="25" viewBox="0 0 123 25" fill="none" xmlns="http://www.w3.org/2000/svg">
<path fill-rule="evenodd" clip-rule="evenodd" d="M4.39997 24.2868C3.30378 24.2868 1.71787 24.4687 0.629503 24.4524C-0.258663 24.4361 -0.159543 23.6144 0.629503 23.5225C2.38236 23.3314 3.76873 23.0412 3.77721 21.4208C3.66114 14.9597 3.9435 8.95448 4.8571 3.199C4.84927 1.57917 3.36247 1.29681 1.60962 1.09726C0.820569 1.01445 0.72145 0.183669 1.60962 0.167366C2.69733 0.151064 4.2839 0.308871 5.38008 0.333651C5.98654 0.342129 6.593 0.333651 7.19945 0.333651C7.98785 0.342129 8.25456 0.865119 8.50366 1.38811L15.3058 15.7403C15.6299 16.4295 16.0531 16.3467 16.2696 15.7481L21.5268 1.48788C21.8672 0.549501 22.4404 0.0512928 23.3456 0.0930275C24.0433 0.13411 24.7326 0.175844 25.4303 0.167366C26.5265 0.158889 27.6227 -0.015226 28.7104 0.00107657C29.5992 0.0173792 29.4995 0.914675 28.7104 0.997492C26.9582 1.19704 26.1274 1.35485 26.1027 2.50907L26.2774 21.4201C26.3107 22.5828 26.9582 23.2643 28.7104 23.4553C29.4995 23.546 29.5992 24.4348 28.7104 24.4511C27.6227 24.4674 26.8337 24.2855 25.7623 24.2855H22.5976C21.5262 24.2855 20.7371 24.4674 19.6494 24.4511C18.7606 24.4348 18.8604 23.5453 19.6494 23.4553C21.4016 23.2643 22.0498 22.5828 22.0824 21.4201L21.8666 7.25118C21.8503 6.0963 21.4349 5.93849 21.0365 6.99359L14.8239 23.2975C14.3667 24.5013 14.0433 24.0859 13.6775 23.2388L6.6256 7.1188C6.23499 6.21368 5.85286 6.32128 5.82808 7.16053C5.64549 13.6972 5.69505 18.29 5.97741 21.4208C5.98589 23.0406 7.48116 23.3314 9.23337 23.5225C10.0139 23.6144 10.1137 24.4354 9.23337 24.4524C8.13653 24.4687 6.55061 24.2868 5.46225 24.2868H4.39997ZM61.0098 24.2868C59.9214 24.2868 58.3349 24.4687 57.2387 24.4524C56.3499 24.4361 56.4581 23.6144 57.2387 23.5225C58.9915 23.3314 60.3864 23.0412 60.3949 21.4208C60.2788 14.9597 60.5612 8.95448 61.4741 3.199C61.4663 1.57917 59.971 1.29681 58.2188 1.09726C57.4382 1.01445 57.33 0.183669 58.2188 0.167366C59.315 0.151064 60.9016 0.308871 61.9899 0.333651C62.5964 0.342129 63.2022 0.333651 63.8165 0.333651C64.6062 0.342129 64.8709 0.865119 65.1129 1.38811L71.9143 15.7403C72.239 16.4295 72.6616 16.3467 72.8859 15.7481L78.1347 1.48788C78.4836 0.549501 79.0568 0.0512928 79.9547 0.0930275C80.6512 0.13411 81.3496 0.175844 82.0474 0.167366C83.1351 0.158889 84.2319 -0.015226 85.3281 0.00107657C86.2156 0.0173792 86.1087 0.914675 85.3281 0.997492C83.5752 1.19704 82.7451 1.35485 82.7118 2.50907L82.8938 21.4201C82.9192 22.5828 83.5752 23.2643 85.3274 23.4553C86.108 23.546 86.215 24.4348 85.3274 24.4511C84.2306 24.4674 83.4409 24.2855 82.3701 24.2855H79.214C78.1426 24.2855 77.3529 24.4674 76.258 24.4511C75.3776 24.4348 75.4774 23.5453 76.258 23.4553C78.0108 23.2643 78.6662 22.5828 78.6903 21.4201L78.4751 7.25118C78.4588 6.0963 78.0434 5.93849 77.645 6.99359L71.4396 23.2975C70.9837 24.5013 70.6603 24.0859 70.2853 23.2388L63.2433 7.1188C62.8448 6.21368 62.4712 6.32128 62.4457 7.16053C62.2547 13.6972 62.3042 18.29 62.5957 21.4208C62.6036 23.0406 64.0897 23.3314 65.8426 23.5225C66.6323 23.6144 66.7314 24.4354 65.8426 24.4524C64.7548 24.4687 63.1689 24.2868 62.0727 24.2868H61.0098Z" fill="black"/>
<path fill-rule="evenodd" clip-rule="evenodd" d="M28.9176 13.1164C29.8723 10.774 32.2642 9.4868 33.7099 9.16335C35.9362 8.65667 37.3976 9.13009 38.5687 9.81937C39.4491 10.3424 39.6734 11.4966 39.6734 13.1164V21.5044C39.6734 22.2022 39.931 22.8582 40.8113 22.9247C41.0852 22.9501 41.2685 23.1829 41.0526 23.4073C40.0223 24.495 38.1951 24.9358 36.9333 22.8752C36.7918 22.6437 36.3764 22.66 36.1357 22.8256C35.1804 23.4907 34.3418 24.1298 33.3115 24.4865C32.2238 24.8608 31.1934 25.0023 30.122 23.9224C29.6819 23.4816 29.3995 23.1086 29.391 21.6883C29.391 20.2922 29.7562 19.612 30.454 18.9143C31.3845 17.9831 32.9789 16.9045 34.2329 16.4304C35.0637 16.1148 35.7112 15.8318 36.2596 15.4751C36.5916 15.2507 36.7996 14.8777 36.8074 14.2882C36.8244 12.3945 36.6248 10.808 35.7112 10.4258C34.9307 10.1017 34.0999 9.80307 33.0617 10.3926C32.4057 10.7662 32.0731 11.7216 31.5508 12.9919C31.1771 13.8885 30.2798 14.6117 29.3082 14.2961C28.8759 14.1546 28.66 13.7555 28.9176 13.1164ZM33.0448 18.448C33.286 18.0255 33.7008 17.5931 34.3405 17.2201C34.7607 16.9572 35.2091 16.7424 35.6773 16.5797C36.4579 16.3059 36.782 16.688 36.8068 17.2703C36.8557 18.2008 36.8335 19.1336 36.7402 20.0607C36.6405 21.0493 36.2753 21.8135 35.9264 22.0868C35.0206 22.8178 33.8586 23.0088 33.3265 22.5426C31.9323 21.3055 32.2896 19.7685 33.0448 18.448ZM85.4772 13.1164C86.4234 10.774 88.8154 9.4868 90.2611 9.16335C92.4952 8.65667 93.9481 9.13009 95.1277 9.81937C96.0002 10.3424 96.233 11.4966 96.233 13.1164L96.2239 21.5044C96.2239 22.2022 96.49 22.8582 97.3625 22.9247C97.6442 22.9501 97.8183 23.1829 97.6031 23.4073C96.5728 24.495 94.7462 24.9358 93.4916 22.8752C93.3501 22.6437 92.9262 22.66 92.6856 22.8256C91.7303 23.4907 90.8923 24.1298 89.862 24.4865C88.7821 24.8608 87.7439 25.0023 86.6817 23.9224C86.2324 23.4816 85.9507 23.1086 85.9507 21.6883C85.9415 20.2922 86.3074 19.612 87.0129 18.9143C87.935 17.9831 89.5294 16.9045 90.7841 16.4304C91.6233 16.1148 92.263 15.8318 92.8101 15.4751C93.1427 15.2507 93.3501 14.8777 93.3579 14.2882C93.3833 12.3945 93.1845 10.808 92.2624 10.4258C91.4818 10.1017 90.6589 9.80307 89.6207 10.3926C88.9647 10.7662 88.6321 11.7216 88.1013 12.9919C87.727 13.8885 86.8303 14.6117 85.8659 14.2961C85.4277 14.1546 85.2112 13.7555 85.4772 13.1164ZM89.5959 18.448C89.8365 18.0255 90.2532 17.5931 90.8923 17.2201C91.3144 16.9602 91.7627 16.7456 92.2298 16.5797C93.0103 16.3059 93.3338 16.688 93.367 17.2703C93.4086 18.201 93.3836 19.1335 93.292 20.0607C93.2001 21.0493 92.8271 21.8135 92.4782 22.0868C91.5724 22.8178 90.4189 23.0088 89.8874 22.5426C88.4841 21.3055 88.8408 19.7685 89.5959 18.448ZM109.771 13.1164C110.717 10.774 113.109 9.4868 114.555 9.16335C116.789 8.65667 118.251 9.13009 119.421 9.81937C120.303 10.3424 120.527 11.4966 120.527 13.1164V21.5044C120.527 22.2022 120.784 22.8582 121.664 22.9247C121.938 22.9501 122.121 23.1829 121.904 23.4073C120.866 24.495 119.048 24.9358 117.786 22.8752C117.644 22.6437 117.229 22.66 116.988 22.8256C116.033 23.4907 115.194 24.1298 114.165 24.4865C113.076 24.8608 112.047 25.0023 110.975 23.9224C110.534 23.4816 110.244 23.1086 110.244 21.6883C110.235 20.2922 110.61 19.612 111.306 18.9143C112.238 17.9831 113.823 16.9045 115.078 16.4304C115.917 16.1148 116.564 15.8318 117.104 15.4751C117.443 15.2507 117.651 14.8777 117.651 14.2882C117.677 12.3945 117.477 10.808 116.564 10.4258C115.775 10.1017 114.952 9.80307 113.915 10.3926C113.259 10.7662 112.926 11.7216 112.395 12.9919C112.021 13.8885 111.124 14.6117 110.161 14.2961C109.721 14.1546 109.505 13.7555 109.771 13.1164ZM113.899 18.448C114.139 18.0255 114.555 17.5931 115.186 17.2201C115.609 16.9602 116.057 16.7456 116.524 16.5797C117.312 16.3059 117.628 16.688 117.661 17.2703C117.705 18.2008 117.683 19.1333 117.595 20.0607C117.496 21.0493 117.121 21.8135 116.781 22.0868C115.875 22.8178 114.712 23.0088 114.182 22.5426C112.785 21.3055 113.134 19.7685 113.899 18.448Z" fill="black"/>
<path fill-rule="evenodd" clip-rule="evenodd" d="M51.5254 9.95927C53.286 10.0095 54.8974 10.0173 56.6581 9.95927C57.256 9.93449 57.3141 10.6733 56.6581 10.7646C55.2547 10.9557 54.3164 11.6613 53.4686 12.6172C52.5635 13.6384 51.691 14.5279 50.8687 15.5491L50.7357 15.7069C50.5452 15.9143 50.5452 16.3205 50.7024 16.5449L54.3816 21.795C55.3284 22.8494 55.6356 23.4226 57.1889 23.6378C57.9277 23.7382 57.6206 24.4353 56.9646 24.4021C55.0624 24.303 52.33 24.2364 50.3287 24.3271C49.8384 24.3447 49.7471 23.6711 50.2368 23.5387C51.0591 23.3144 51.483 22.8572 50.3287 21.2459L48.825 19.2948C48.6424 19.062 48.285 18.672 47.9199 19.1116L47.3969 19.7506C46.1755 21.3046 45.0213 22.9655 47.0147 23.5217C47.513 23.6541 47.4217 24.3447 46.9319 24.3264C44.9221 24.2358 43.1778 24.3023 41.2762 24.4014C40.6117 24.4347 40.3124 23.7376 41.0441 23.6372C42.6052 23.422 43.8012 22.5077 44.748 21.4454L47.3062 18.4216C47.6551 18.0141 47.5971 17.7239 47.2978 17.2752L44.1911 12.6492C43.4438 11.611 42.9867 10.955 41.5827 10.7633C40.9182 10.672 40.9847 9.93318 41.5827 9.95796C43.344 10.016 46.4252 10.0082 48.1853 9.95796C48.6254 9.94166 48.6672 10.4816 48.227 10.6062C46.915 10.9713 47.1726 11.5282 48.2022 12.9818L49.5475 14.9087C49.6558 15.0502 49.9629 15.0744 50.079 14.9329L50.7852 14.078C51.8984 12.6818 53.2436 11.1122 51.4497 10.6055C51.0017 10.4829 51.0845 9.94296 51.5254 9.95927ZM102.371 24.0623C101.282 24.0623 99.6963 24.4686 98.6001 24.4523C97.7113 24.436 97.8196 23.6143 98.6001 23.5224C100.353 23.3313 100.577 22.4758 100.586 21.2628V14.0962C100.586 13.1741 100.461 12.4673 99.4635 12.044C98.7416 11.7369 98.7742 11.2713 99.4303 10.9563C100.494 10.4412 101.598 9.66843 102.711 8.68832C103.152 8.29771 103.4 8.41443 103.466 9.11218C103.508 9.58561 103.508 10.0669 103.55 10.5488C103.608 11.2883 103.99 11.238 104.281 10.9394C105.327 9.85167 106.207 9.31955 107.129 9.13696C108.408 8.87938 109.239 9.4441 109.513 9.90905C110.252 11.1722 109.796 12.3264 109.032 12.7659C108.15 13.2726 107.336 12.9074 106.673 12.3838C106.232 12.0349 105.808 11.703 105.369 11.7447C103.857 11.9025 103.649 13.1735 103.649 14.1458V21.3124C103.658 22.9322 104.961 23.1474 106.714 23.3385C107.503 23.4304 107.602 24.211 106.714 24.2201C105.269 24.1133 103.82 24.0607 102.371 24.0623Z" fill="black"/>
</svg>
