<svg width="164" height="25" viewBox="0 0 164 25" fill="none" xmlns="http://www.w3.org/2000/svg">
<path fill-rule="evenodd" clip-rule="evenodd" d="M40.9373 22.8098V2.32848H48.0813V22.8089L40.9373 22.8098ZM129.63 22.8098V2.32848H136.773V22.8089L129.63 22.8098ZM116.685 22.8043V10.344C116.685 9.29823 116.385 8.44799 115.782 7.79233C115.179 7.13759 114.395 6.81298 113.441 6.81298C113.185 6.81234 112.93 6.83799 112.679 6.88952C112.616 6.28108 112.507 5.67818 112.355 5.08576C112.06 3.97916 111.593 2.97031 110.947 2.0592C110.567 1.54286 110.144 1.06058 109.68 0.617851C110.815 0.206564 112.071 0 113.448 0C115.119 0 116.693 0.368868 118.153 1.11398C119.617 1.86137 120.884 2.94462 121.849 4.27518C122.497 5.19093 122.974 6.21626 123.257 7.30173C123.551 8.40004 123.7 9.79343 123.7 11.4644V22.8025H116.685V22.8043ZM103.189 22.8098V10.3513C103.189 9.30468 102.889 8.45352 102.286 7.7997C101.684 7.14404 100.902 6.82036 99.946 6.82036C98.9971 6.82036 98.2132 7.14404 97.6046 7.7997C96.9941 8.45352 96.6861 9.30468 96.6861 10.3513V22.8098H89.6924V11.4718C89.6924 7.97123 90.6339 5.18628 92.5078 3.11601C94.3825 1.04482 96.8595 0.00645867 99.9533 0.00645867C101.624 0.00645867 103.198 0.375326 104.658 1.12044C106.123 1.86861 107.39 2.95206 108.356 4.28256C109.004 5.19821 109.48 6.22361 109.762 7.30911C110.056 8.40834 110.207 9.79989 110.207 11.4718V22.8089L103.189 22.8098ZM27.9937 22.8043V10.344C27.9937 9.29823 27.6922 8.44799 27.09 7.79233C26.4878 7.13759 25.7049 6.81298 24.7486 6.81298C24.4812 6.81298 24.2276 6.83973 23.986 6.88952C23.9225 6.28108 23.814 5.67818 23.6614 5.08576C23.3791 4.00013 22.9023 2.97468 22.2542 2.0592C21.875 1.54241 21.451 1.06009 20.9871 0.617851C22.1214 0.206564 23.3774 0 24.7551 0C26.426 0 27.9993 0.368868 29.46 1.11398C30.9241 1.86137 32.1907 2.94462 33.156 4.27518C33.8041 5.19076 34.2808 6.21617 34.5633 7.30173C34.8565 8.40004 35.0068 9.79343 35.0068 11.4644V22.8025H27.9937V22.8043ZM14.4978 22.8098V10.3513C14.4978 9.30468 14.1962 8.45352 13.595 7.7997C12.9919 7.14404 12.2099 6.82036 11.2536 6.82036C10.3047 6.82036 9.52176 7.14404 8.91129 7.7997C8.30173 8.45352 7.99281 9.30468 7.99281 10.3513V22.8098H1V11.4718C1 7.97123 1.94061 5.18628 3.8163 3.11601C5.69107 1.04482 8.16618 0.00645867 11.261 0.00645867C12.9319 0.00645867 14.5061 0.375326 15.9668 1.12044C17.431 1.86815 18.6975 2.95171 19.6629 4.28256C20.3112 5.19794 20.788 6.22342 21.0701 7.30911C21.3633 8.40834 21.5146 9.79989 21.5146 11.4718V22.8089L14.4978 22.8098ZM60.858 2.34231V14.8091C60.858 15.8558 61.166 16.706 61.7765 17.3598C61.9867 17.5867 62.2164 17.772 62.4681 17.9196V24.9852C61.4065 24.8267 60.3772 24.4989 59.4194 24.0142C57.9817 23.2848 56.7617 22.2381 55.7612 20.8751C55.0973 19.9476 54.6076 18.9071 54.3161 17.8043C54.0146 16.6913 53.8643 15.3135 53.8643 13.6868V2.34231H60.858ZM149.549 2.34231V14.8091C149.549 15.8558 149.858 16.706 150.467 17.3598C150.678 17.5867 150.909 17.772 151.16 17.9196V24.9852C150.099 24.8269 149.069 24.499 148.111 24.0142C146.673 23.2848 145.454 22.2381 144.453 20.8751C143.789 19.9472 143.299 18.9068 143.007 17.8043C142.706 16.6913 142.557 15.3135 142.557 13.6868V2.34231H149.549ZM154.466 17.9177C154.715 17.7702 154.945 17.5848 155.15 17.3598C155.751 16.706 156.054 15.8558 156.054 14.8091V2.34231H163.068V13.6868C163.068 17.1643 162.128 19.9419 160.253 22.0048C158.726 23.6924 156.797 24.6902 154.465 25L154.466 17.9177ZM65.7741 17.9177C66.0231 17.7702 66.2518 17.5848 66.4583 17.3598C67.0605 16.706 67.3611 15.8558 67.3611 14.8091V2.34231H74.377V13.6868C74.377 17.1643 73.4355 19.9419 71.5607 22.0048C70.0336 23.6924 68.1044 24.6902 65.7732 25L65.7741 17.9177Z" fill="black"/>
</svg>
