<svg width="93" height="25" viewBox="0 0 93 25" fill="none" xmlns="http://www.w3.org/2000/svg">
<path fill-rule="evenodd" clip-rule="evenodd" d="M4.2689 24.0095H1.00488V1.02621H4.60546L7.63398 13.2568L10.9657 1.02621H14.6674V24.0095H11.2684L11.2351 12.1482L8.81195 24.0095H6.3216L4.2689 12.1482V24.0095ZM26.21 18.062C26.21 23.0684 23.9218 24.4121 21.3976 24.4121C18.8733 24.4121 16.5851 23.0684 16.5851 18.062V6.97374C16.5851 1.96674 18.8733 0.623047 21.3976 0.623047C23.9218 0.623047 26.21 1.96674 26.21 6.97374V18.062Z" fill="black"/>
<path fill-rule="evenodd" clip-rule="evenodd" d="M19.9795 19.2869C19.9795 20.1673 20.5979 21.0137 21.3791 21.0137C22.1603 21.0137 22.8115 20.1673 22.8115 19.2869V5.74769C22.8115 4.86782 22.1609 4.02148 21.3791 4.02148C20.5974 4.02148 19.9795 4.86782 19.9795 5.74769V19.2869Z" fill="white"/>
<path fill-rule="evenodd" clip-rule="evenodd" d="M89.6475 18.062C89.6475 23.0684 87.3663 24.4121 84.8499 24.4121C82.3335 24.4121 80.0186 23.0684 80.0186 18.062V6.97374C80.0186 1.96674 82.334 0.623047 84.8499 0.623047C87.3658 0.623047 89.6475 1.96674 89.6475 6.97374V18.062Z" fill="black"/>
<path fill-rule="evenodd" clip-rule="evenodd" d="M83.417 19.2869C83.417 20.1673 84.0676 21.0137 84.8496 21.0137C85.5975 21.0137 86.249 20.1673 86.249 19.2869V5.74769C86.249 4.86782 85.5975 4.02148 84.8496 4.02148C84.0681 4.02148 83.417 4.86782 83.417 5.74769V19.2869Z" fill="white"/>
<path fill-rule="evenodd" clip-rule="evenodd" d="M48.9269 16.0794V18.3975C48.9269 22.4634 47.2823 24.4121 44.0929 24.4121C41.6077 24.4121 39.3586 23.0684 39.3586 18.062V6.97374C39.3586 1.96674 41.6083 0.623047 44.0929 0.623047C46.8789 0.623047 48.9269 1.69832 48.9269 6.40255V8.78822H45.4355V5.79755C45.4355 4.92412 44.9323 4.08399 44.0929 4.08399C43.3205 4.08399 42.8163 4.92412 42.8163 5.79755V19.2376C42.8163 20.1116 43.3205 20.9517 44.0929 20.9517C44.9323 20.9517 45.4355 20.1116 45.4355 19.2376V16.0794H48.9269ZM50.5715 24.0095V1.02621H53.9631V11.0397H57.0185V1.02621H60.2079V24.0095H57.0185V13.8946H53.9631V24.0095H50.5715ZM62.2896 24.0095V1.02621H66.0836V24.0095H62.2896ZM67.6611 1.02621H71.4218L74.6783 11.3081V1.02621H78.0361V24.0095H75.0473L71.2866 11.9126V24.0095H67.6611V1.02621ZM37.5118 7.78006V6.40255C37.5118 1.69832 35.4638 0.623047 32.6767 0.623047C30.1589 0.623047 27.9092 1.96674 27.9092 6.97374V7.78006C27.9092 8.11611 27.876 10.1319 29.756 11.4428C31.8378 12.8536 34.0199 14.0631 34.0199 16.3484V19.2381C34.0199 20.1121 33.5162 20.9522 32.6767 20.9522C31.9048 20.9522 31.4006 20.1121 31.4006 19.2381V16.2808H27.9092V18.062C27.9092 23.0684 30.1589 24.4121 32.6767 24.4121C35.8999 24.4121 37.5118 22.4634 37.5118 18.3975V16.2808H37.4785C37.4785 12.2153 34.2215 10.3338 32.946 9.62783C31.8378 9.02282 31.4687 7.91427 31.4012 7.71242V5.79755C31.4012 4.92412 31.9048 4.08399 32.6773 4.08399C33.5167 4.08399 34.0204 4.92412 34.0204 5.79755V7.78006H37.5118Z" fill="black"/>
<path fill-rule="evenodd" clip-rule="evenodd" d="M89.6465 22.9941C89.6465 22.3361 90.1855 21.8613 90.7974 21.8613C91.4082 21.8613 91.9121 22.3361 91.9121 22.9941C91.9121 23.6522 91.4082 24.127 90.7974 24.127C90.1855 24.1264 89.6465 23.6516 89.6465 22.9941Z" fill="black"/>
<path fill-rule="evenodd" clip-rule="evenodd" d="M90.7804 23.8477C91.2554 23.8477 91.6289 23.4876 91.6289 22.998C91.6289 22.5085 91.2554 22.1484 90.7804 22.1484C90.3043 22.1484 89.9297 22.5085 89.9297 22.998C89.9297 23.4876 90.3048 23.8477 90.7804 23.8477Z" fill="white"/>
<path fill-rule="evenodd" clip-rule="evenodd" d="M90.4232 23.562H90.2148V22.4297H90.8023C91.1373 22.4297 91.3048 22.5242 91.3048 22.7438C91.3048 22.9639 91.1373 23.0589 90.9276 23.0589L91.3477 23.5625H91.0964L90.7193 23.0589H90.4245V23.562H90.4232Z" fill="black"/>
<path fill-rule="evenodd" clip-rule="evenodd" d="M90.7469 22.9962C90.888 22.9962 91.0646 22.9444 91.0646 22.6858C91.0646 22.4799 90.9224 22.4297 90.7813 22.4297H90.498V22.9962H90.7469Z" fill="white"/>
</svg>
