<svg width="138" height="25" viewBox="0 0 138 25" fill="none" xmlns="http://www.w3.org/2000/svg">
<path d="M12.7933 19.7465C13.6816 18.4787 14.2148 16.848 14.2148 14.6741C14.2148 12.5002 13.6816 10.8695 12.7933 9.60167C11.9049 8.33347 10.661 7.78989 9.06188 7.78989C7.46238 7.78989 6.21885 8.33347 5.33011 9.60167C4.44176 10.8695 3.90859 12.5002 3.90859 14.6741C3.90859 16.8476 4.44176 18.4787 5.33011 19.7465C6.21846 21.0147 7.46238 21.5583 9.06188 21.5583C10.661 21.5583 11.9049 20.8333 12.7933 19.7465ZM15.2811 22.6446C13.8596 24.0943 11.7273 25 9.06227 25C6.39683 25 4.26416 24.2754 2.84303 22.6446C0.88874 20.8333 0 18.1162 0 14.6741C0 11.0505 0.88874 8.51452 2.84303 6.70275C4.26455 5.25348 6.39722 4.34779 9.06227 4.34779C11.7273 4.34779 13.86 5.07242 15.2811 6.70275C17.2358 8.51452 18.1242 11.2316 18.1242 14.6741C18.1242 18.1162 17.2358 20.8333 15.2811 22.6446ZM26.6533 4.7103H27.364V7.78989H26.2977C25.7645 7.78989 25.4093 7.97095 25.2313 8.15241C25.0538 8.33346 24.8758 8.69558 24.8758 8.87704V10.1452H27.3636V12.8623H24.8758V24.4568H21.144V12.8623H19.3669V10.1452H21.322V9.23955C21.322 7.78989 21.4996 6.70314 22.0327 5.97851C22.5659 5.07282 23.8094 4.7107 25.9417 4.7107L26.6533 4.7103ZM35.5379 4.7103H36.2487V7.78989H35.1824C34.6496 7.78989 34.294 7.97095 34.1164 8.15241C33.9388 8.33346 33.7612 8.69558 33.7612 8.87704V10.1452H36.2487V12.8623H33.7612V24.4568H30.0295V12.8623H28.2524V10.1452H30.207V9.23955C30.207 7.78989 30.3846 6.70314 30.9178 5.97851C31.4506 5.07282 32.6949 4.7107 34.8272 4.7107L35.5379 4.7103ZM37.3146 15.037H44.6002V18.6598H37.3146V15.037ZM50.1087 4.89136L52.5965 16.1238L53.1293 19.2029L53.6625 16.1238L55.9723 4.89136H60.0593L62.3696 16.1238L62.9027 19.2029L63.4355 16.1238L66.1009 4.89136H70.1879L64.679 24.2758H60.9477L58.6378 13.0434L57.927 9.23955L57.2163 13.0434L55.084 24.2758H51.3526L45.8441 4.89136H50.1087ZM82.2708 10.1452C82.9816 10.5074 83.5147 10.8695 84.0475 11.5941C84.4035 12.1377 84.5815 12.6813 84.7587 13.2244C84.7587 13.7684 84.9366 14.6741 84.9366 15.9419V24.4564H81.2045V15.7608C81.2045 15.037 81.0269 14.3116 80.8493 13.9495C80.4941 13.2248 79.9602 12.8623 78.8946 12.8623C78.0066 12.8623 77.1179 13.2248 76.7627 13.7684C76.2295 14.493 76.052 15.3987 76.052 16.6669V24.4568H72.3202V5.07282H76.052V11.9566C76.5847 11.0509 77.1179 10.5074 77.829 10.1452C78.5394 9.78273 79.2498 9.60167 79.9602 9.60167C80.8493 9.60167 81.56 9.78273 82.2708 10.1452ZM88.3128 9.96418H92.0442V24.2758H88.3128V9.96418ZM92.0442 8.33346H88.3128V4.89136H92.0442V8.33346ZM94.1765 12.8623V10.1452H96.13V6.15957H99.6842V10.1452H101.994V12.8623H99.6842V20.4715C99.6842 21.0147 99.6842 21.3768 99.8618 21.5583C100.039 21.739 100.395 21.739 101.284 21.739H101.994V24.4564H100.218C98.4407 24.4564 97.3739 24.2754 96.6636 23.5507C96.3084 23.1882 96.13 22.4636 96.13 21.5583V12.6813L94.1765 12.8623ZM108.214 13.5877C107.681 14.1309 107.326 14.8551 107.148 15.7608H113.545C113.545 14.8551 113.189 13.9495 112.479 13.4059C111.945 12.8623 111.235 12.6813 110.346 12.6813C109.458 12.6813 108.747 13.0434 108.214 13.5877ZM113.722 10.3263C114.788 10.6884 115.499 11.4131 116.21 12.5002C116.743 13.4059 117.098 14.3116 117.276 15.3987C117.454 16.1238 117.454 17.0294 117.454 18.2973H107.147C107.147 19.7465 107.681 20.8333 108.568 21.3768C109.102 21.739 109.813 21.9208 110.523 21.9208C111.411 21.9208 112.123 21.739 112.478 21.1954C112.833 21.0147 113.011 20.6522 113.188 20.2905H116.92C116.742 21.1954 116.387 21.9208 115.498 22.8261C114.255 24.2754 112.478 25 110.168 25C108.213 25 106.614 24.4564 105.193 23.1882C103.771 22.1011 103.061 20.109 103.061 17.3912C103.061 14.8548 103.771 13.043 105.015 11.5941C106.258 10.3263 108.035 9.60167 109.99 9.60167C111.59 9.60167 112.656 9.78273 113.722 10.3263ZM125.627 0V1.81178H122.606V10.5074H120.474V1.81178H117.276V0H125.627ZM133.801 0H137V10.5074H134.868V3.4421V2.53641V1.63072L132.913 10.5074H130.781L128.826 1.63072V10.5074H126.872V0H130.07L132.025 8.33346L133.801 0Z" fill="black"/>
</svg>
