<svg width="184" height="56" viewBox="0 0 184 56" fill="none" xmlns="http://www.w3.org/2000/svg">
<path d="M93.5395 1.15097C93.2807 1.38822 93.3886 2.18623 93.7336 2.68229C94.2081 3.35089 94.0356 3.63127 92.6984 4.51555C92.0729 4.94691 91.3612 5.46454 91.1024 5.68021C90.8651 5.89589 90.52 6.15471 90.3259 6.28411C88.4495 7.42721 84.2654 10.4036 84.0066 10.7702C83.5968 11.3525 83.5968 11.5682 84.0066 11.5682C84.3516 11.5682 86.5516 10.2957 86.6594 10.0153C86.7025 9.92907 86.8319 9.8428 86.9398 9.8428C87.177 9.8428 88.4927 8.93695 88.6005 8.69971C88.6436 8.61344 88.773 8.54873 88.8809 8.54873C89.075 8.54873 90.3259 7.64289 92.6121 5.89589C92.9788 5.63708 93.4964 5.20572 93.7983 4.92534C94.4238 4.34301 94.7258 4.40771 94.8983 5.11945C95.0708 5.83119 96.1924 6.00373 96.1924 5.33513C96.1924 5.07632 96.1061 4.70966 95.9767 4.49398C95.6316 3.86852 94.8983 2.12153 94.8983 1.90585C94.8983 1.64703 94.165 1 93.8846 1C93.7768 1 93.6042 1.0647 93.5395 1.15097Z" fill="black"/>
<path d="M80.793 11.4611C80.4264 11.7846 80.2323 12.1944 80.2323 12.6257C80.2323 13.0787 80.0597 13.4022 79.6499 13.7041C78.55 14.5237 78.1186 15.0629 78.0108 15.8178C77.8598 16.6373 78.1402 17.3922 78.5715 17.3922C78.7225 17.3922 78.9813 17.4785 79.1539 17.6079C79.4127 17.7589 79.4127 17.8667 79.0676 18.2334C78.8304 18.4922 78.5715 18.6863 78.4637 18.6863C78.0755 18.6863 77.45 19.6568 77.5579 20.0451C77.6441 20.3039 77.4069 20.649 76.8677 21.1235C75.4873 22.3097 75.2717 22.5469 75.2717 22.9567C75.2717 23.3881 76.3932 24.5096 76.8246 24.5096C77.3422 24.5096 78.0755 25.4586 78.0755 26.1488C78.0755 26.4938 78.2265 26.9683 78.399 27.184C78.5715 27.4213 78.7225 27.9604 78.7225 28.3702C78.7225 29.5133 79.499 30.9799 80.1244 30.9799C80.3832 30.9799 80.6852 30.829 80.7499 30.6349C80.9656 30.0525 81.8498 30.3545 81.9145 31.0231C82.0008 31.6701 81.6557 31.8427 81.4401 31.3035C81.3754 31.1309 81.2028 30.9799 81.0518 30.9799C80.642 31.0015 79.7578 32.4897 79.8656 32.9426C79.9303 33.1583 79.844 33.4387 79.6715 33.5896C79.046 34.1073 79.4774 36.1778 80.4695 37.364C80.6636 37.6013 80.6636 37.7522 80.4048 38.0542C80.2323 38.2483 79.9087 39.0032 79.6931 39.7149C79.4774 40.4266 79.0245 41.6344 78.6794 42.3893C78.097 43.6402 78.0539 43.9206 78.1402 45.5166C78.2049 46.4656 78.3774 47.9322 78.5068 48.7518C78.7441 50.0243 78.8951 50.3694 79.5421 50.9733C79.9519 51.3615 80.3617 51.685 80.4695 51.685C80.5773 51.685 80.8362 51.8792 81.0734 52.138C81.6557 52.7634 82.4753 52.6125 82.5616 51.8576C82.6479 51.189 81.9793 50.391 81.3538 50.391C80.5558 50.391 79.7146 48.9459 79.499 47.2421C79.3911 46.3794 79.4343 46.0774 79.6931 45.8617C79.9087 45.6892 80.0166 45.2147 80.0166 44.4167C80.0166 43.3599 80.0813 43.1658 80.6852 42.6697C81.0734 42.3462 81.8283 41.6776 82.3675 41.16L83.3596 40.2541L82.6479 39.6071C82.2596 39.2404 82.0008 38.8522 82.0655 38.7444C82.2165 38.5071 81.1812 36.1562 80.9224 36.1562C80.7283 36.1562 80.2323 35.0994 80.2323 34.7112C80.2323 34.5386 80.3832 34.3661 80.5558 34.3014C80.7715 34.2151 80.8793 33.87 80.8793 33.1799C80.8793 32.0368 81.246 32.1662 81.3538 33.3308C81.4401 34.3445 81.8283 34.3877 82.2596 33.4602C82.4537 33.0505 82.7126 32.7054 82.8204 32.7054C82.9498 32.7054 83.0361 32.5113 83.0361 32.274C83.0361 32.0152 83.3812 31.627 83.9635 31.2603C84.4596 30.9368 84.9125 30.6349 84.9772 30.5917C85.0419 30.5486 84.9125 30.4192 84.6968 30.2898C84.3733 30.1172 84.3086 29.8584 84.3517 29.082C84.3949 28.5212 84.3086 27.831 84.136 27.5722C83.9851 27.2918 83.8125 26.1272 83.7694 24.9841C83.6615 23.2155 83.5537 22.6763 82.9929 21.5548C82.5832 20.6921 82.389 20.0666 82.4969 19.7862C82.6694 19.2471 82.9282 19.2039 83.1223 19.6784C83.2086 19.8941 83.4459 19.9804 83.8341 19.9372C84.3517 19.8725 84.438 19.7647 84.438 19.1608C84.4596 18.3628 84.8046 18.0393 85.6458 18.0393C86.4869 18.0393 86.5301 18.2549 85.8399 18.902C85.4732 19.2471 85.1929 19.7 85.1929 19.9157C85.1929 20.1745 84.9556 20.4548 84.6105 20.6058L84.0066 20.8862L84.6105 21.3607C85.2791 21.8999 85.3654 22.4607 84.8262 22.6548C84.5458 22.7626 84.5243 22.8489 84.7399 23.0646C84.9556 23.2587 85.0635 23.2371 85.2791 22.9351C85.4301 22.741 85.7321 22.5685 85.9262 22.5685C86.1203 22.5685 86.336 22.4175 86.4222 22.2234C86.5085 21.9646 86.8104 21.8999 87.7594 21.9646L88.9672 22.0293L89.0319 20.9725C89.0751 20.3901 89.0535 19.7862 88.9672 19.5921C88.8594 19.3118 88.7947 19.3118 88.4496 19.6353C88.2339 19.8294 87.9104 19.9372 87.6947 19.8509C87.3496 19.7215 87.3496 19.6784 87.6732 19.3333C87.8673 19.1176 88.3633 18.8804 88.7731 18.8157C89.6358 18.6432 90.024 18.0393 89.8299 17.155C89.7005 16.6158 89.5927 16.5295 89.0104 16.5295C88.428 16.5079 88.3849 16.4864 88.7084 16.2923C89.2692 15.9687 89.1829 15.7962 87.9535 14.9982C86.983 14.3943 86.5948 14.2649 85.4085 14.2433C84.2654 14.2002 83.9419 14.1139 83.64 13.7041C83.2733 13.2728 83.2733 13.2081 83.5753 12.863C83.8772 12.5179 83.8772 12.4101 83.5537 11.6983C83.2086 10.9866 83.1008 10.9219 82.2812 10.9219C81.6126 10.9219 81.2244 11.0728 80.793 11.4611ZM81.1597 14.61C81.4185 14.7609 81.7204 14.9982 81.8067 15.1707C81.9361 15.3864 82.1949 15.4295 82.6479 15.3217C83.2949 15.1923 83.3165 15.1923 83.1871 15.8609C83.0576 16.4864 83.0792 16.5295 83.6615 16.5295C84.0929 16.5295 84.5243 16.2923 84.9556 15.8609C85.4948 15.3433 85.6458 15.2786 85.7536 15.5374C85.9693 16.1197 85.7536 16.6158 85.1929 16.7452C84.8909 16.8099 84.6321 17.0471 84.589 17.2844C84.4596 17.953 84.2007 18.104 83.7263 17.802C83.338 17.5648 83.1439 17.5863 82.4969 17.8883C81.2891 18.4706 81.0303 18.3843 81.1812 17.5001C81.3322 16.6805 81.0518 16.4864 80.6852 17.1118C80.4911 17.4569 80.4048 17.4354 79.9303 16.853C79.3048 16.0982 79.2186 15.3217 79.7362 14.7609C80.146 14.308 80.5126 14.2649 81.1597 14.61ZM87.5222 16.6589C88.0614 16.8099 88.1477 17.4138 87.6947 17.802C87.134 18.2765 86.2065 17.3922 86.5948 16.7452C86.7457 16.4864 86.8536 16.4864 87.5222 16.6589ZM86.7673 19.6568C86.7026 20.0882 86.0556 20.3254 85.8399 19.9804C85.7321 19.8078 85.7105 19.5921 85.7752 19.4843C85.9262 19.247 86.8104 19.398 86.7673 19.6568ZM80.8362 20.2607C80.9009 20.7568 80.8362 20.8431 80.3617 20.8431C80.0813 20.8431 79.7793 20.9725 79.7146 21.1019C79.6068 21.3823 79.7793 20.3039 79.9303 19.8078C80.0813 19.2902 80.7715 19.6353 80.8362 20.2607ZM82.2381 21.3176C82.54 21.5117 81.9793 23.2155 81.6126 23.2155C81.1381 23.2155 81.0734 22.8273 81.4185 22.1371C81.6989 21.5764 81.7204 21.4901 81.4401 21.4901C80.9224 21.4901 80.793 21.0156 81.2244 20.6921C81.5695 20.4548 81.6342 20.4548 81.8283 20.7784C81.9361 20.994 82.1302 21.2313 82.2381 21.3176ZM88.2124 20.9725C88.2124 21.2313 88.0182 21.2744 87.3065 21.2313C86.034 21.145 85.9477 20.6274 87.2202 20.6274C87.9751 20.6274 88.2124 20.7137 88.2124 20.9725ZM79.0245 21.9646C79.2186 22.3312 79.3696 22.7626 79.3696 22.9351C79.3696 23.0861 79.5205 23.2155 79.6931 23.2155C79.9087 23.2155 80.0166 22.9998 80.0166 22.5469C80.0166 22.0293 80.1029 21.8999 80.4048 21.9646C80.8577 22.0509 80.793 23.2155 80.3185 23.4959C79.8656 23.7547 79.9519 25.3076 80.5773 28.0683C80.6636 28.4134 80.8577 28.8663 81.0303 29.082C81.2244 29.2977 81.2675 29.4702 81.1165 29.5565C81.0087 29.6427 80.8362 29.578 80.7715 29.4702C80.6852 29.3192 80.3617 29.2977 79.995 29.3624C79.3695 29.4918 79.3696 29.4918 79.3696 28.5643C79.3696 28.0467 79.2186 27.3565 79.046 27.0115C78.8735 26.6879 78.7225 26.0409 78.7225 25.588C78.7225 25.1135 78.6147 24.488 78.4853 24.1429C78.248 23.539 78.0755 21.5332 78.248 21.2097C78.3774 20.9509 78.6794 21.2313 79.0245 21.9646ZM0.215678 19.7215C0.0862712 19.7647 0 20.0235 0 20.3039C0 20.8431 0.560763 21.1666 1.12153 20.9509C1.91954 20.649 1.9411 21.1666 1.89797 31.6485L1.83326 41.8717L0.927416 41.9364C0.0647033 42.0011 0 42.0442 0 42.6481V43.2736H3.7528C7.39776 43.2736 7.52717 43.252 7.65657 42.8207C7.85068 42.1952 7.46246 41.8717 6.59975 41.9364C6.18996 41.9795 5.82331 41.9364 5.75861 41.8285C5.6939 41.7207 5.60763 39.5208 5.58606 36.9111C5.54293 32.8348 5.58606 32.1662 5.84488 32.1015C6.14683 32.0583 6.72916 32.8348 10.1369 37.9895C10.3094 38.2699 11.1721 39.5424 12.0348 40.8149L13.6309 43.1658L17.4268 43.2736C19.5404 43.3383 21.3737 43.3383 21.5247 43.2952C21.6541 43.252 21.7835 42.9932 21.7835 42.7128C21.7835 42.303 21.6757 42.1952 21.2443 42.1952C20.5326 42.1952 20.36 41.7207 20.7914 40.9658C20.9639 40.6423 21.3306 39.6071 21.5894 38.6796L22.0854 37.0189L23.7677 36.9758C27.0892 36.8895 26.8088 36.8464 26.9813 37.5581C27.1539 38.2914 27.5205 39.3914 27.9519 40.4266C28.1244 40.8149 28.2538 41.3756 28.2538 41.656C28.2538 42.1089 28.146 42.1952 27.6284 42.1952C26.9598 42.1952 26.5715 42.8854 27.046 43.2089C27.1754 43.3167 28.3832 43.3383 29.742 43.2736C32.4811 43.1442 32.8693 42.9285 31.64 42.1952C31.1655 41.9148 30.842 41.5482 30.7773 41.16C30.7341 40.8364 30.5616 40.2325 30.4106 39.8227C30.2596 39.413 30.0224 38.7228 29.8714 38.313C29.7204 37.9032 29.4832 37.213 29.3322 36.8033C29.2028 36.3935 28.9871 35.7033 28.9009 35.2935C28.8146 34.8837 28.5989 34.1935 28.4695 33.7838C28.3185 33.374 28.0813 32.6838 27.9303 32.274C27.7793 31.8642 27.5421 31.1741 27.3911 30.7643C27.2617 30.3545 27.046 29.6643 26.9598 29.2545C26.8735 28.8447 26.6578 28.1114 26.4853 27.6369C26.1833 26.8389 26.0971 26.7742 25.299 26.7095C24.501 26.6448 24.4363 26.6879 24.1128 27.4644C23.703 28.4996 23.3148 29.578 23.0344 30.5486C22.9266 30.9584 22.7325 31.3897 22.6462 31.5191C22.5599 31.627 22.409 32.0799 22.3227 32.4897C22.2364 32.8995 22.0854 33.374 21.9776 33.5681C21.8913 33.7406 21.6541 34.4739 21.46 35.1857C21.2659 35.8974 20.9639 36.8248 20.8129 37.2346C20.6404 37.6444 20.2953 38.6581 20.0581 39.4992C19.2816 42.0227 19.3032 41.9795 18.3542 41.9795C17.7072 41.9795 17.4052 41.8501 17.1464 41.4835C16.4994 40.5776 14.774 38.1189 14.0191 37.0189C13.6093 36.415 13.1564 35.7896 13.0485 35.6602C12.9191 35.5092 12.5956 35.0563 12.3368 34.6249C12.078 34.2151 11.6251 33.5896 11.3231 33.2661C11.0212 32.9426 10.7408 32.4681 10.7192 32.2093C10.6761 31.7995 10.8055 31.7132 11.6466 31.6054C13.0485 31.4113 14.0191 30.9152 14.9896 29.8584C16.37 28.3702 16.6072 27.8095 16.6072 25.8037C16.6072 24.1429 16.5641 23.9704 15.8308 22.8704C14.7092 21.1882 13.0485 20.0882 11.2368 19.8509C10.1584 19.7215 0.560763 19.6137 0.215678 19.7215ZM9.29573 21.1882C11.1506 21.3823 11.8839 22.094 12.4015 24.1429C12.7466 25.5233 12.7681 25.9331 12.5525 26.9899C11.9701 29.9016 10.827 30.7858 7.5056 30.9368L5.60763 31.0231V26.1919C5.60763 22.6116 5.67233 21.296 5.88801 21.0803C6.06056 20.9078 6.49191 20.8646 7.11738 20.9293C7.65657 20.994 8.62712 21.1019 9.29573 21.1882ZM24.9755 30.9799C25.0402 31.6054 25.5794 33.3093 26.0323 34.4524C26.6147 35.8974 26.4421 36.0699 24.4795 35.9621C23.5305 35.919 22.6893 35.8543 22.6031 35.8111C22.5384 35.768 22.754 34.9268 23.0991 33.9347C23.4442 32.9642 23.7246 31.9936 23.7246 31.7995C23.7246 31.6054 23.8324 31.1741 23.9403 30.8721C24.2207 30.1604 24.8893 30.2251 24.9755 30.9799ZM105.316 19.9157C105.057 20.5843 105.359 20.9509 106.221 20.9509H107.084L107.149 31.4544L107.192 41.9795H106.221C105.294 41.9795 105.251 42.0011 105.251 42.6266V43.2736H114.741C119.96 43.252 124.317 43.3167 124.446 43.3814C124.813 43.6187 125.525 43.2736 125.525 42.8638C125.525 42.3893 124.985 41.8933 124.684 42.0658C124.338 42.2815 124.166 41.7638 124.403 41.2678C124.748 40.5776 125.525 38.1405 125.525 37.7954C125.525 37.1915 126.172 36.9974 128.285 36.9327L130.442 36.868L130.787 37.7522C130.981 38.2483 131.132 38.8522 131.132 39.0894C131.132 39.3267 131.262 39.6933 131.434 39.9306C131.585 40.1678 131.779 40.7286 131.866 41.1815C131.995 41.8501 131.952 42.0011 131.628 42.1089C130.917 42.3246 130.593 42.5619 130.528 42.9285C130.464 43.2305 130.766 43.2736 133.052 43.2736C134.475 43.2736 135.683 43.1873 135.769 43.0579C135.834 42.9501 135.597 42.605 135.252 42.303C134.82 41.9148 134.475 41.2462 134.152 40.1894C133.893 39.3267 133.548 38.313 133.375 37.9248C133.203 37.5366 133.073 36.9974 133.073 36.7385C133.052 36.4797 132.922 36.0268 132.75 35.7249C132.577 35.4229 132.448 34.9916 132.426 34.7543C132.426 34.5171 132.275 34.0426 132.103 33.6975C131.93 33.374 131.779 32.8995 131.779 32.6838C131.779 32.4681 131.65 31.9721 131.477 31.5838C131.024 30.4623 130.679 29.4271 130.485 28.6075C130.399 28.1977 130.205 27.5722 130.054 27.2487C129.795 26.7095 129.666 26.6448 128.911 26.7095C128.07 26.7742 128.048 26.7958 127.617 28.0683C127.401 28.78 127.078 29.6427 126.905 30.0094C126.754 30.3545 126.56 30.9368 126.474 31.3035C126.387 31.6485 126.258 32.0368 126.172 32.1662C126.085 32.274 125.934 32.7269 125.848 33.1367C125.762 33.5465 125.611 34.021 125.525 34.2151C125.438 34.3877 125.007 35.7033 124.554 37.1268C124.123 38.5502 123.67 39.909 123.584 40.1463C123.476 40.3835 123.325 40.858 123.26 41.2247C123.131 41.8717 121.75 43.0148 121.448 42.7128C121.384 42.6481 121.341 40.556 121.384 38.0757L121.448 33.5681H119.486V35.1425C119.486 37.0836 118.839 39.4345 118.019 40.4266C116.984 41.7207 116.251 41.9795 113.511 41.9795H111.074L111.117 31.4544L111.182 20.9509H112.045C112.864 20.9509 112.907 20.9078 112.907 20.3254V19.6784H109.155C106.459 19.6568 105.38 19.7215 105.316 19.9157ZM128.544 30.4192C128.544 30.7858 129.126 32.7485 129.536 33.7838C129.709 34.1935 129.86 34.8837 129.881 35.2935L129.946 36.0484L128.113 35.9621C127.099 35.9405 126.258 35.8758 126.236 35.8543C126.215 35.8327 126.387 35.2504 126.625 34.5386C126.862 33.8269 127.207 32.7269 127.379 32.1015C127.552 31.4544 127.789 30.7643 127.897 30.527C128.156 30.0525 128.544 29.9878 128.544 30.4192Z" fill="black"/>
<path d="M87.0696 22.8474C85.7108 23.2788 85.5383 23.4082 85.0206 24.3356L84.4383 25.3493L84.9344 25.8022C85.2147 26.0611 85.4088 26.514 85.4088 26.8806C85.4088 27.6139 85.7324 27.7433 85.948 27.0963C86.1206 26.5787 86.4872 26.7297 86.4872 27.312C86.4872 27.5277 86.6598 27.8728 86.8539 28.0884C87.4578 28.6708 87.7597 29.4256 87.9107 30.6119C88.1695 32.5961 89.6361 34.7744 90.391 34.3C90.7145 34.1058 90.6067 33.6098 90.1969 33.4804C89.9812 33.4157 89.6577 33.0275 89.4852 32.6177C89.2048 32.0138 89.2048 31.8197 89.442 31.4961C89.593 31.2805 89.7224 30.8491 89.7224 30.5256C89.7224 30.1805 89.8734 29.8354 90.0891 29.706C90.6283 29.4256 91.0596 27.3983 90.6714 27.0747C90.4989 26.9453 90.3694 26.6002 90.3694 26.3414C90.3694 25.6297 90.1538 25.1552 89.8303 25.1552C89.5714 25.1552 89.442 24.8101 89.1185 23.2357C89.0322 22.8259 88.8597 22.4592 88.7519 22.4377C88.6225 22.3945 87.8676 22.5886 87.0696 22.8474ZM88.4283 24.8317C88.4283 25.0042 88.2989 25.1552 88.1264 25.1552C87.7597 25.1552 87.5225 24.8533 87.7166 24.6376C87.9754 24.3788 88.4283 24.5082 88.4283 24.8317ZM32.5246 26.8159C32.1795 27.2473 32.4599 27.6786 33.1932 27.808L33.8618 27.9375V41.7408L33.2147 42.1938C32.8697 42.4526 32.5677 42.7977 32.5677 42.9702C32.5677 43.229 33.7108 43.2722 40.3321 43.2506C44.6025 43.2506 48.1828 43.2937 48.2906 43.3584C48.6357 43.5741 49.1749 43.229 49.1749 42.7977C49.1749 42.5173 48.9377 42.28 48.5279 42.1291L47.8809 41.8918L47.8377 39.1311C47.8161 37.6214 47.7946 36.1979 47.7946 35.9822C47.773 35.6587 48.0534 35.594 49.9298 35.5078C52.1728 35.3783 52.9277 35.1411 53.9845 34.2353C54.8688 33.4372 55.2139 32.5745 55.2139 31.0864C55.2139 29.4903 54.8257 28.6276 53.7473 27.7865C52.5826 26.8806 51.4827 26.665 48.2691 26.6434C46.6946 26.6434 45.0555 26.6218 44.6457 26.6002C43.9771 26.5571 43.8908 26.6218 43.8261 27.1394C43.7614 27.6355 43.8477 27.7218 44.3653 27.7865L44.9692 27.8512L45.1417 34.5372C45.228 38.2037 45.2496 41.4389 45.1849 41.7193C45.1202 41.9781 44.8182 42.3232 44.5163 42.4526C43.6536 42.8408 43.5242 42.4095 43.632 39.4547C43.7398 36.7803 43.632 36.3705 42.8987 36.3705C42.4673 36.3705 42.2732 36.8018 42.2732 37.8371C42.2517 38.8939 41.8203 40.4468 41.3242 41.1585C40.8497 41.8703 39.8361 42.1938 38.0244 42.1938C37.0969 42.1938 36.6656 42.1075 36.644 41.9134C36.5793 40.7056 36.6872 28.0884 36.795 27.9375C36.8597 27.8296 37.0969 27.7433 37.3342 27.7433C37.8303 27.7433 38.1106 27.161 37.7871 26.8375C37.442 26.4924 32.805 26.4708 32.5246 26.8159ZM51.5905 28.261C52.9062 29.1237 52.9709 32.7686 51.6768 33.8039C51.4395 33.998 50.7925 34.2137 50.2533 34.3C49.7141 34.3647 49.0887 34.4725 48.8514 34.5372C47.9024 34.796 47.7946 34.4509 47.8593 31.1511C47.8809 29.4688 47.9671 27.9806 48.0318 27.8943C48.2259 27.5708 50.9866 27.8512 51.5905 28.261Z" fill="black"/>
<path d="M54.8685 26.7524C54.6528 27.3132 54.9548 27.7446 55.5155 27.7446C55.9253 27.7446 56.0979 27.8955 56.2057 28.2622C56.2704 28.5426 56.2488 31.7562 56.141 35.4227C55.9684 41.8715 55.9469 42.0872 55.5371 42.0872C55.2998 42.1087 54.9763 42.1734 54.8254 42.2597C54.5234 42.4754 54.4803 43.2734 54.7822 43.295H59.9801C60.433 43.2518 60.0879 42.3028 59.5918 42.2381C58.7291 42.1087 58.6429 41.7636 58.7076 38.2912L58.7723 34.9913H64.8112L64.8759 38.3559L64.9191 41.7205L64.1642 42.1734C63.4309 42.6048 63.129 43.2734 63.6897 43.2734C67.5719 43.3381 68.7582 43.3165 68.9523 43.2087C69.3621 42.9499 69.017 42.195 68.4562 42.195C68.1974 42.195 67.8954 42.0872 67.8307 41.9793C67.7229 41.8068 67.6366 30.1386 67.7229 27.9602C67.7229 27.8308 68.0249 27.7446 68.3915 27.7446C68.9738 27.7446 69.0385 27.6799 68.9738 27.1622L68.9091 26.5799L66.3641 26.5583C64.1211 26.5583 63.776 26.6015 63.6034 26.9466C63.3231 27.4426 63.4956 27.6583 64.2721 27.8093L64.9191 27.9387V33.9992H58.6429L58.7076 30.915L58.7723 27.8524L59.3115 27.7877C60.0448 27.6799 60.2389 27.4426 60.0663 26.8818C59.9369 26.4721 59.8291 26.4289 59.0311 26.5799C57.9311 26.7524 56.5508 26.7524 55.6665 26.5583C55.1704 26.4505 54.9548 26.4936 54.8685 26.7524ZM134.152 26.623C134.044 26.6662 133.936 26.925 133.936 27.2054C133.936 27.5936 134.065 27.723 134.54 27.7877L135.122 27.8524L135.252 33.6757C135.316 36.8677 135.467 39.8441 135.597 40.2755C136.071 41.9793 137.387 43.1655 139.199 43.5322C141.873 44.093 144.202 42.7558 145.022 40.1676C145.367 39.0461 145.41 38.2697 145.345 33.3953L145.259 27.8955L145.755 27.723C146.273 27.5289 146.316 27.3779 146.014 26.8818C145.777 26.5152 143.469 26.3642 143.059 26.7093C142.563 27.1191 142.736 27.7446 143.318 27.7446C143.62 27.7446 143.857 27.874 143.857 28.0034C143.879 28.1543 143.879 30.8935 143.857 34.0639C143.836 39.1324 143.793 39.9304 143.469 40.5127C142.822 41.6558 142.046 42.0872 140.601 42.0872C139.501 42.0872 139.263 42.0009 138.746 41.4833L138.142 40.9009V27.8524L138.854 27.7877C139.479 27.723 139.565 27.6583 139.501 27.1407L139.436 26.5583H136.912C135.511 26.5583 134.281 26.5799 134.152 26.623ZM146.661 26.8818C146.381 27.3995 146.532 27.7446 147.071 27.7446C147.287 27.7446 147.545 27.874 147.653 28.0034C147.761 28.1543 147.826 31.3464 147.783 35.1208L147.718 41.9362L147.092 42.1734C146.467 42.3891 146.165 43.144 146.661 43.3165C146.769 43.3381 147.998 43.3597 149.357 43.3165C151.773 43.2518 151.859 43.2303 151.794 42.7773C151.751 42.4969 151.535 42.2813 151.19 42.195C150.673 42.0656 150.651 42.0009 150.479 39.7147C150.284 36.9109 150.349 35.6815 150.673 35.5737C150.802 35.5305 151.341 36.1991 151.859 37.0403C152.98 38.8736 153.067 39.0245 154.727 41.4186L155.978 43.2734H169.933L169.997 40.448C170.062 37.256 169.976 36.7383 169.264 36.8462C168.833 36.9109 168.747 37.0619 168.639 38.3128C168.488 39.8872 168.056 41.0303 167.388 41.6342C167.043 41.9362 166.525 42.044 165.015 42.1087C163.958 42.1519 163.009 42.195 162.902 42.2166C162.233 42.346 162.19 42.1734 162.19 38.7226V35.2286L163.333 35.3796C164.756 35.5737 165.253 36.0482 165.425 37.3854C165.511 38.3128 165.598 38.4206 166.072 38.4206H166.611L166.676 34.7972C166.719 31.713 166.676 31.1738 166.396 31.066C165.856 30.8503 165.425 31.3895 165.425 32.2954C165.425 33.5032 164.735 34.1718 163.376 34.258L162.298 34.3227L162.233 31.0229L162.168 27.7446H164.239C166.805 27.7446 167.431 28.0249 168.035 29.4053C168.272 29.966 168.531 30.8288 168.596 31.3464C168.725 32.4032 168.897 32.5757 169.523 32.3816C169.933 32.2522 169.954 32.1013 169.846 29.621C169.782 28.1543 169.631 26.9465 169.501 26.8603C169.113 26.623 163.894 26.4505 162.319 26.6446C161.5 26.7309 160.292 26.7309 159.645 26.623C158.739 26.4721 158.416 26.4936 158.265 26.7093C157.963 27.2054 158.2 27.6367 158.847 27.7446L159.494 27.8524L159.559 34.8835C159.602 42.4754 159.58 42.7773 158.567 42.0656C158.135 41.7636 157.79 41.2891 155.72 38.2049C155.331 37.601 154.706 36.803 154.339 36.4148C153.692 35.7246 153.692 35.6815 154.08 35.3796C154.318 35.2286 154.814 35.0129 155.224 34.9482C155.633 34.8619 156.28 34.4737 156.755 33.9992C158.804 31.9287 158.221 28.672 155.569 27.2916C154.62 26.8171 154.275 26.774 151.19 26.7524C149.335 26.7309 147.61 26.6662 147.373 26.5799C147.028 26.4721 146.834 26.5368 146.661 26.8818ZM153.455 27.9602C153.757 28.0681 154.253 28.4347 154.533 28.7367C155.008 29.2543 155.073 29.5131 155.073 31.1091C155.073 32.7699 155.029 32.964 154.49 33.5679C154.016 34.0855 153.563 34.3012 152.377 34.5384C150.975 34.8188 150.845 34.8188 150.586 34.4737C150.414 34.258 150.349 33.8483 150.414 33.4816C150.479 33.1365 150.543 31.713 150.543 30.3111V27.7446H151.708C152.355 27.7446 153.131 27.8308 153.455 27.9602ZM179.854 26.9034C179.574 27.4642 179.725 27.6583 180.544 27.8308C181.213 27.9602 181.234 27.9602 181.105 29.1033C181.062 29.7072 181.083 31.8209 181.191 33.762C181.299 35.7246 181.342 37.3422 181.299 37.3854C181.062 37.6226 180.479 37.0619 180.07 36.1991C179.789 35.6384 179.185 34.4953 178.689 33.6757C178.215 32.8346 177.74 32.015 177.654 31.8424C177.568 31.6699 177.309 31.217 177.072 30.8719C176.834 30.5052 176.554 30.0307 176.425 29.7935C176.295 29.5563 176.015 29.0602 175.778 28.7151C175.54 28.3485 175.26 27.8524 175.152 27.5936C174.829 26.8603 174.225 26.6662 172.348 26.6662C170.774 26.6662 170.601 26.7093 170.601 27.076C170.601 27.2916 170.817 27.6152 171.097 27.7877C171.572 28.1112 171.572 28.1759 171.421 30.6778C171.335 32.0797 171.313 35.207 171.378 37.5795C171.507 41.8715 171.507 41.9362 171.054 42.1734C170.817 42.3244 170.601 42.6048 170.601 42.8205C170.601 43.1655 170.817 43.2303 172.068 43.3165C173.75 43.4459 174.246 43.1871 173.837 42.4107C173.707 42.1519 173.448 42.0009 173.297 42.0656C173.125 42.1303 172.931 42.0872 172.866 41.9793C172.672 41.6774 172.65 29.0386 172.844 28.9955C172.995 28.9308 173.793 30.2896 175.131 32.813C175.26 33.0502 175.54 33.5247 175.778 33.8914C176.015 34.2365 176.295 34.7325 176.425 34.9698C176.554 35.207 176.77 35.5952 176.921 35.8325C178.905 39.1324 180.026 41.095 180.566 42.2597C180.997 43.1655 181.126 43.2734 181.666 43.2302L182.291 43.1655L182.377 35.6168C182.442 31.4758 182.55 28.0034 182.593 27.9171C182.658 27.8308 182.895 27.7446 183.132 27.7446C183.477 27.7446 183.564 27.6152 183.499 27.1407C183.434 26.5583 183.413 26.5583 181.752 26.5152C180.307 26.4936 180.07 26.5368 179.854 26.9034ZM85.2791 28.672C85.2144 28.8661 85.2144 29.2974 85.3007 29.621L85.4301 30.1817L85.9046 29.7288L86.3575 29.2543L85.9046 28.7798C85.4732 28.37 85.4085 28.3485 85.2791 28.672ZM92.1808 28.7798C92.0514 28.8661 91.8789 29.1465 91.7926 29.4053C91.7063 29.6641 91.4259 29.9013 91.1671 29.9445C90.8652 29.9876 90.6711 30.1817 90.6279 30.5268C90.5632 30.9366 90.6279 31.0013 90.9083 30.8935C91.1455 30.8072 91.4475 30.9366 91.771 31.2385C92.3533 31.8424 92.4827 33.8051 91.9651 34.2149C91.5769 34.56 91.5769 35.207 91.9867 35.3796C92.1592 35.4443 92.3102 35.7246 92.3102 36.0266C92.3102 36.3285 92.3965 36.6089 92.5043 36.6952C92.8925 36.9109 93.0651 36.2638 93.0651 34.6678C93.0651 32.7483 93.3886 32.4679 94.0572 33.8483C94.618 34.9913 94.4886 36.5658 93.7984 37.2128C93.5611 37.4285 93.2808 37.8814 93.1945 38.2265C93.0435 38.7873 92.9357 38.852 92.1377 38.8088C91.0808 38.7657 90.9514 39.0245 91.0593 40.9225C91.124 41.9146 91.1887 42.0872 91.5769 42.1519C92.2024 42.2381 92.9572 41.0088 92.9572 39.9519C92.9572 38.7441 93.4964 38.9598 93.9278 40.3617C94.2944 41.5048 94.2944 41.5695 93.9278 41.9793C93.6258 42.3028 93.5396 42.8205 93.4964 44.0714C93.4749 44.9988 93.3455 45.9694 93.2161 46.2282C93.0651 46.487 92.9572 47.0262 92.9572 47.436C92.9572 47.8458 92.8063 48.2987 92.6337 48.4497C92.418 48.6438 92.3102 49.1398 92.3102 50.0888C92.3102 50.8221 92.2239 51.5123 92.0945 51.577C91.8141 51.7495 91.8142 52.4828 92.1161 52.6554C92.4612 52.8926 93.5611 52.3319 93.669 51.8789C93.7337 51.6633 93.7337 51.1025 93.669 50.6496C93.6043 50.1535 93.6905 49.5065 93.9062 49.0104C94.1003 48.5575 94.2513 47.9967 94.2513 47.7811C94.2513 47.5438 94.4454 46.8105 94.6827 46.1419C95.2003 44.6753 95.2219 44.0067 94.7905 43.8341C94.3376 43.6616 94.3807 43.4028 94.9415 43.1655C95.2219 43.0361 95.4591 42.7558 95.5022 42.5185C95.6748 41.0735 96.3003 38.5932 96.5591 38.2912C96.71 38.1187 96.8394 37.8167 96.8394 37.6442C96.8394 37.4501 96.9904 37.1266 97.163 36.8893C97.3571 36.6305 97.4649 35.9619 97.4865 34.9698C97.4865 33.5894 97.4218 33.3522 96.7316 32.2954C96.3003 31.6483 95.9983 31.0013 96.063 30.8288C96.1924 30.5052 97.4865 30.4405 97.4865 30.7641C97.4865 30.8719 97.6375 30.9797 97.81 30.9797C98.0041 30.9797 98.1982 31.1307 98.2629 31.3032C98.3492 31.4758 98.6511 31.6268 98.9962 31.6268C99.4276 31.6268 99.6217 31.4974 99.7295 31.1307C99.8158 30.7641 99.6648 30.4837 98.9531 29.8366C97.8963 28.8877 97.5512 28.8661 96.4081 29.5778C95.3728 30.2249 95.265 30.2464 94.5748 29.6425C94.2082 29.319 92.418 28.4779 92.418 28.6073C92.418 28.6073 92.3102 28.6935 92.1808 28.7798ZM92.8494 30.7209C92.8494 31.713 92.4396 31.6699 92.3533 30.6778C92.2886 30.0739 92.3533 29.8798 92.569 29.9445C92.72 30.0092 92.8494 30.3543 92.8494 30.7209ZM92.2671 39.65C92.2239 39.9304 92.1161 40.1461 91.9867 40.1461C91.8789 40.1461 91.7494 39.9304 91.7063 39.65C91.6632 39.3265 91.7494 39.1755 91.9867 39.1755C92.2239 39.1755 92.3102 39.3265 92.2671 39.65ZM85.6242 31.066C85.3654 31.4974 85.0419 31.8424 84.9125 31.8424C84.7615 31.864 84.3085 32.2954 83.8988 32.813C83.489 33.3522 83.036 33.7835 82.8851 33.7835C82.7557 33.7835 82.5616 33.9777 82.4969 34.2149C82.4322 34.4521 82.2596 34.6463 82.1518 34.6463C82.0439 34.6463 81.9577 34.8404 81.9577 35.0776C81.9577 35.3149 82.0655 35.509 82.1949 35.509C82.3459 35.509 82.389 35.7246 82.3027 36.0266C82.238 36.3285 82.2596 36.6305 82.389 36.6952C82.4969 36.7599 82.6047 37.0619 82.6047 37.3638C82.6047 37.6658 82.7557 37.9461 82.9282 38.0108C83.1008 38.0971 83.2517 38.3559 83.2517 38.6147C83.2517 39.1324 84.1144 40.0382 84.6105 40.0382C84.783 40.0382 84.9772 40.1892 85.0634 40.3617C85.1281 40.5558 85.4516 40.6852 85.8399 40.6852H86.4869V42.195C86.4869 43.295 86.3575 43.9204 86.034 44.5675C85.7752 45.0419 85.6242 45.6027 85.6889 45.8184C86.0555 46.983 86.4438 47.7811 86.8751 48.3203C87.479 49.0967 87.479 49.2261 86.8104 50.2829C86.53 50.7574 86.2712 51.3397 86.2712 51.5986C86.2712 52.0946 85.7105 53.324 85.3869 53.5181C85.2791 53.6044 85.1928 53.9279 85.1928 54.2945C85.1928 55.0278 85.5595 55.1141 86.4438 54.5533C87.2633 54.0357 87.3712 53.82 87.2418 53.1299C87.1771 52.7201 87.2418 52.4828 87.4575 52.4181C87.63 52.3319 87.781 52.0731 87.781 51.8142C87.781 50.9084 88.0398 50.4339 88.7515 50.0457C89.7436 49.5065 90.2828 48.234 89.7436 47.6732C89.6142 47.5654 89.6142 47.0693 89.7436 46.4439C89.8515 45.8184 89.8515 44.8478 89.7436 44.0714C89.5495 42.7126 88.9025 40.9009 88.6005 40.9009C88.4927 40.9009 88.428 40.5343 88.428 40.0814C88.428 39.0461 88.2123 38.2912 87.9751 38.4422C87.8672 38.5069 87.4359 38.4422 87.0477 38.2912C86.3575 38.0324 86.2928 37.9461 86.3144 37.1481C86.3359 36.2423 86.7673 35.509 87.2633 35.509C87.7163 35.509 87.8025 35.8541 87.4575 36.5011C87.1124 37.1697 87.1986 37.4716 87.6084 37.0619C87.9535 36.7168 88.428 36.7383 88.428 37.105C88.428 37.2775 88.579 37.4501 88.7515 37.5363C88.9888 37.6226 89.075 38.0108 89.075 39.0892C89.075 40.1245 89.1397 40.4911 89.3554 40.4264C89.4848 40.3617 89.6358 39.9735 89.6789 39.5422C89.7221 39.1108 89.8299 38.7441 89.9593 38.7441C90.2613 38.7441 90.175 38.054 89.8299 37.5795C89.6574 37.3422 89.5064 36.9756 89.5064 36.7599C89.5064 36.5227 89.226 35.9835 88.8809 35.5521C88.5358 35.1208 88.1908 34.5384 88.1261 34.2796C88.0398 34.0208 87.8025 33.7404 87.5653 33.6757C87.2633 33.5894 87.1339 33.2444 87.0261 32.2738C86.9398 31.4758 86.7457 30.8719 86.4869 30.6562C86.1202 30.3327 86.0771 30.3543 85.6242 31.066ZM86.4869 32.6836C86.5947 32.9208 86.7026 33.3306 86.7026 33.5894C86.7026 34.1286 85.9261 35.0776 85.4732 35.0776C85.3222 35.0776 85.1928 35.3149 85.1928 35.6168C85.1928 35.9188 85.1066 36.156 84.9772 36.156C84.8693 36.156 84.7615 36.2854 84.7615 36.458C84.7615 36.6305 84.5674 36.8462 84.3301 36.9109C83.8988 37.0403 83.7047 37.8814 84.1144 37.8814C84.2438 37.8814 84.438 38.1402 84.5674 38.4638L84.8046 39.0677L85.1281 38.5716C85.5379 37.9677 85.6889 37.9677 86.3575 38.6363C86.7888 39.0677 86.832 39.1971 86.5732 39.3912C85.9477 39.9088 83.8988 39.0892 83.8988 38.3128C83.8988 38.0755 83.8125 37.8814 83.7047 37.8814C83.4027 37.8814 83.2302 37.2128 83.4243 36.9324C83.5321 36.803 83.6831 36.4364 83.7694 36.1344C83.8341 35.8109 84.136 35.4011 84.438 35.207C84.7399 35.0129 84.9772 34.711 84.9772 34.5169C84.9772 34.3443 85.1281 34.1502 85.3007 34.0855C85.4732 33.9992 85.6242 33.7188 85.6242 33.46C85.6242 32.3385 86.0771 31.9287 86.4869 32.6836ZM88.7515 43.0577C88.9672 43.295 89.075 43.6185 88.9888 43.8126C88.8378 44.2224 88.428 44.0498 88.428 43.5753C88.428 43.4028 88.3417 43.2734 88.2123 43.2734C88.1045 43.2734 87.9966 43.1224 87.9966 42.9499C87.9966 42.4969 88.277 42.5401 88.7515 43.0577ZM88.0182 44.8263C88.2986 45.1929 88.4064 45.6674 88.428 46.5301C88.428 47.4791 88.5143 47.7811 88.7947 47.8889C89.0535 47.9967 89.075 48.1046 88.9025 48.2771C88.5358 48.6438 87.3065 47.1987 87.4575 46.5517C87.5222 46.2929 87.4359 45.7968 87.2849 45.4733C86.7457 44.4165 87.2633 43.9636 88.0182 44.8263Z" fill="black"/>
<path d="M90.5855 32.5336C90.5855 32.8355 90.7365 33.1375 90.909 33.2237C91.3188 33.3747 91.3188 32.9433 90.909 32.4042C90.6071 31.9944 90.5855 31.9944 90.5855 32.5336ZM90.0895 34.7982C90.0032 34.8629 89.9385 35.1864 89.9385 35.4883V36.0275L90.3914 35.5746C90.6502 35.3374 90.7796 35.0139 90.7149 34.8845C90.5424 34.6256 90.3051 34.5825 90.0895 34.7982ZM90.9737 36.6314C90.909 37.4726 90.9522 37.8392 91.211 38.0334C92.009 38.702 92.5266 38.0118 91.858 37.1706C91.6423 36.8687 91.4482 36.3726 91.4482 36.0707C91.4482 35.0354 91.06 35.4883 90.9737 36.6314Z" fill="black"/>
</svg>
